/* XPM */
static char *_f12f437dee644c9889ffbec74f6e115uVgch18Rj7Wh4b6i[] = {
/* columns rows colors chars-per-pixel */
"64 64 173 2 ",
"   c #5B4841",
".  c #5E6E5B",
"X  c #61604E",
"o  c #616A56",
"O  c #7A6754",
"+  c #61705B",
"@  c #7C745D",
"#  c #647661",
"$  c #627F66",
"%  c #7D7F60",
"&  c #7D7A70",
"*  c #8E6E5E",
"=  c #936557",
"-  c #916D5B",
";  c #9D6A5A",
":  c #8C725D",
">  c #81765B",
",  c #A66E5C",
"<  c #A86F5D",
"1  c #A7715E",
"2  c #AA715E",
"3  c #966B65",
"4  c #887561",
"5  c #817C6D",
"6  c #8B7E6B",
"7  c #957062",
"8  c #9D7467",
"9  c #987C64",
"0  c #9E7669",
"q  c #817C71",
"w  c #A77169",
"e  c #A47E6E",
"r  c #BC7C62",
"t  c #B67A62",
"y  c #AE7774",
"u  c #AF7B78",
"i  c #B67676",
"p  c #B87677",
"a  c #B67C7B",
"s  c #B97C7C",
"d  c #C07F64",
"f  c #6B876D",
"g  c #7A8369",
"h  c #778165",
"j  c #618D72",
"k  c #688E73",
"l  c #748B73",
"z  c #689477",
"x  c #6B9B7B",
"c  c #639274",
"v  c #7A9776",
"b  c #7C9C7D",
"n  c #759475",
"m  c #6FA17F",
"M  c #948F6D",
"N  c #A7886C",
"B  c #A98B6B",
"V  c #A98B70",
"C  c #A18E79",
"Z  c #A88672",
"A  c #B4817E",
"S  c #A5927C",
"D  c #B69577",
"F  c #B89678",
"G  c #BB9979",
"H  c #BBA67D",
"J  c #C58165",
"K  c #C98467",
"L  c #CD8668",
"P  c #CF8869",
"I  c #D18969",
"U  c #7B9C84",
"Y  c #6FA280",
"T  c #71A382",
"R  c #7BA284",
"E  c #76AA86",
"W  c #77AD88",
"Q  c #7DAD8B",
"!  c #7CB28B",
"~  c #839C8A",
"^  c #B48582",
"/  c #BA8382",
"(  c #AD9E85",
")  c #B99D83",
"_  c #88A585",
"`  c #87A98C",
"'  c #82B38F",
"]  c #80B88F",
"[  c #84B490",
"{  c #85BB93",
"}  c #8ABC95",
"|  c #A3A68F",
" . c #BBA183",
".. c #B4A188",
"X. c #BEA589",
"o. c #A1A693",
"O. c #A9AC96",
"+. c #ABAD98",
"@. c #B7A994",
"#. c #B4A792",
"$. c #C78887",
"%. c #C78C89",
"&. c #CB8A8A",
"*. c #D08C8D",
"=. c #D9858A",
"-. c #DC9699",
";. c #E28A8F",
":. c #E38D92",
">. c #EF8F96",
",. c #F08F97",
"<. c #E29296",
"1. c #E39599",
"2. c #EF959C",
"3. c #EE999F",
"4. c #E39B9D",
"5. c #F0969C",
"6. c #FE969F",
"7. c #F1999F",
"8. c #FF989F",
"9. c #C8A988",
"0. c #D3B693",
"q. c #D8B691",
"w. c #D4B895",
"e. c #D9B995",
"r. c #DABD99",
"t. c #E4BF96",
"y. c #E29EA0",
"u. c #EF9EA3",
"i. c #FF97A0",
"p. c #F19CA2",
"a. c #FF9DA4",
"s. c #EFA1A6",
"d. c #EFA5AA",
"f. c #EFA8AC",
"g. c #F1A1A6",
"h. c #FFA0A7",
"j. c #F2A5AA",
"k. c #FFA4AB",
"l. c #FFA9AF",
"z. c #FFACB2",
"x. c #FFB1B6",
"c. c #FFB4B8",
"v. c #86C296",
"b. c #88C397",
"n. c #87C498",
"m. c #8CC599",
"M. c #8FC89C",
"N. c #91C39B",
"B. c #95CC9F",
"V. c #92C99D",
"C. c #95CDA0",
"Z. c #E5C097",
"A. c #E6C49E",
"S. c #ECC79C",
"D. c #ECC79B",
"F. c #EDC89C",
"G. c #F2CC9F",
"H. c #E7C6A0",
"J. c #E8C7A1",
"K. c #E8CAA4",
"L. c #F2CEA3",
"P. c #F2D1A7",
"I. c #F3D1A6",
"U. c #F2D5AD",
"Y. c #F3D5AD",
"T. c #F3D6AE",
"R. c #F5D5AB",
"E. c #EDD7B4",
"W. c #EEDAB7",
"Q. c #F1DDB9",
"!. c #F2DFBC",
"~. c #F0DBB6",
"^. c #F4E1BC",
/* pixels */
"a.a.k.z.z.k.k.k.a.k.k.k.k.l.z.k.k.k.k.l.l.l.k.k.k.k.z.l.h.k.a.k.k.l.k.k.l.z.k.a.k.k.z.l.k.k.k.k.k.l.z.k.k.a.k.k.k.k.k.k.l.k.k.k.",
"k.k.z.l.l.k.k.h.a.k.k.l.x.x.k.k.k.z.x.x.k.z.k.a.k.l.z.z.k.k.a.a.k.h.k.x.z.k.k.k.z.c.x.k.z.k.h.k.l.l.l.l.k.a.a.l.k.k.z.z.k.k.k.z.",
"x.z.k.k.l.z.k.a.k.z.z.x.x.z.l.k.k.c.x.z.z.k.k.z.z.k.k.k.k.k.6.a.k.z.c.z.x.l.k.k.x.z.z.l.k.k.z.z.l.l.l.l.z.i.a.l.l.z.z.x.z.k.k.x.",
"z.k.k.a.k.k.k.z.k.l.z.x.x.k.z.z.l.z.z.z.z.l.z.x.z.k.k.a.k.h.k.k.l.z.x.z.l.z.k.z.z.z.l.z.l.z.x.z.k.k.k.l.k.l.k.z.z.z.z.l.z.l.z.x.",
"k.a.a.a.k.k.z.x.k.z.l.k.k.k.k.k.x.l.k.k.k.k.x.k.a.a.a.k.h.z.x.k.z.l.k.k.a.a.k.z.z.k.k.a.k.l.k.k.h.a.k.a.k.z.k.z.l.k.h.k.k.k.z.l.",
"z.a.a.k.k.z.x.x.k.k.k.z.a.a.a.k.k.k.k.s i a a a i i i i A ^ A a a a a i i i a i i a i i / k.z.k.a.l.k.l.z.z.k.k.l.z.k.a.h.k.k.k.",
"l.k.z.x.a.k.z.k.z.l.z.a.a.a.z.k.k.k.a.) Y.Y.Y.Y.Y.Y.Y.Y.Y.Y.Y.Y.Y.Y.Y.Y.Y.Y.Y.Y.Y.Y.Y.Y.Z z.z.k.z.x.k.a.z.k.z.k.z.a.6.a.k.k.k.k.",
"k.z.x.l.k.a.k.k.k.z.k.a.k.z.z.k.k.k.a.Z G G G G G G G G G G G G G G G G G G G G G G G G e z.k.l.x.l.k.a.k.k.k.l.k.a.h.z.z.k.z.k.",
"k.z.l.k.a.a.a.k.k.k.k.k.z.z.z.k.k.z.k.u Z.t.t.t.t.t.t.t.t.t.t.t.t.t.t.t.t.t.t.t.t.t.t.t.%.k.a.z.z.z.k.a.k.k.k.k.k.k.k.x.z.k.k.z.",
"k.k.l.k.k.a.h.h.z.z.k.k.l.x.z.k.x.z.z./ e.q.q.q.q.q.q.q.q.q.q.q.q.q.q.q.q.q.q.q.q.q.q.q.*.a.a.k.z.k.k.a.a.k.l.z.k.k.k.x.z.l.z.z.",
"l.k.a.a.a.a.z.k.l.x.l.k.z.z.k.a.x.z.k.s.V F O                                     : D 9 ,.a.k.l.k.a.a.a.l.k.l.z.z.h.l.k.k.k.x.k.",
"l.k.a.a.k.z.l.k.x.x.l.k.k.k.a.a.l.k.z.u.0.J.6 U ~ ~ ~ ~ ~ ~ ~ ~ ~ ~ ~ ~ ~ ~ ~ ~ U ( Z. .p.k.k.k.a.k.a.z.k.k.z.x.k.k.a.a.a.k.k.a.",
"k.k.k.h.l.z.l.z.z.z.z.k.a.a.a.a.k.l.z.u.0.P.6 Q U q q q q & q q q q & q q q q ` Q ( D.X.p.k.k.k.l.a.z.z.z.l.z.z.z.k.a.a.k.k.k.k.",
"x.z.l.k.z.z.k.k.l.k.a.a.a.k.k.z.k.k.k.2.w.P.6 Q l 9.0.w.0.S w.r.0.0.C 0.w.0.9.b Q ( D.X.7.k.z.c.z.k.k.z.l.k.k.k.k.a.a.k.k.l.k.k.",
"z.l.k.l.k.k.k.a.l.a.6.k.x.x.z.l.z.l.k.2.w.P.6 Q l K.E.!.W.@.^.!.!.Q.#.!.!.~.w.R Q ( D.X.j.x.x.l.l.z.l.k.l.k.k.a.a.k.z.z.z.l.z.k.",
"z.k.k.k.z.z.h.a.k.a.z.l.z.l.k.a.k.a.k.f.w.P.6 Q ` O.+.+.+.o.+.+.+.+.o.+.+.O.| ' Q ( D.X.p.z.z.k.k.k.z.z.k.a.k.a.z.k.z.l.k.a.a.a.",
"z.k.k.z.z.a.a.k.k.k.z.z.z.z.k.a.6.a.k.f.w.P.6 Q M.B.B.C.C.B.C.B.B.B.B.B.B.B.B.n.Q ( D.X.j.k.z.k.k.z.z.k.a.k.z.k.l.z.z.l.k.a.a.a.",
"h.a.k.z.z.k.k.k.k.z.z.z.k.k.a.a.k.l.k.s.w.P.6 Q E x x x x x W b.b.T x x x x x ! Q ( D.X.p.k.k.a.k.z.x.k.k.k.k.z.x.z.k.k.k.a.a.k.",
"a.k.k.k.z.z.k.a.k.k.k.k.a.a.k.a.z.l.x.s.w.P.6 Q x Q } } } E T b.b.x Q } } } E E Q ( D.X.7.k.8.k.l.k.z.z.k.a.k.k.k.l.a.a.k.h.l.k.",
"k.z.k.z.z.k.a.k.a.k.l.k.a.a.k.l.k.k.x.s.w.P.6 Q Y { m.b.b.W W b v x } m.b.b.! W Q ( D.X.7.a.z.x.k.x.z.k.k.k.k.k.k.k.h.a.a.k.k.l.",
"c.z.z.z.z.k.k.h.k.z.l.a.a.a.k.l.z.z.k.u.w.P.6 Q Y { m.b.b.W x > O k } n.b.b.! W Q ( D.X.7.k.x.z.z.l.l.k.k.a.k.l.z.k.a.a.h.l.z.x.",
"z.k.l.k.k.k.h.k.z.z.l.k.k.k.k.k.z.k.k.2.w.P.6 Q T { m.b.b.W g o X h } n.b.b.! ! Q ( D.X.j.x.z.k.k.k.k.k.k.k.l.z.z.k.k.k.k.l.z.z.",
"z.a.a.a.k.k.k.l.z.l.l.l.k.k.k.k.k.k.a.3.w.P.6 Q Y { m.b.b.E % n $ h } n.b.n.! ! Q ( D.X.j.z.z.k.a.a.h.k.k.z.z.z.k.k.k.k.k.k.l.k.",
"k.k.a.k.x.h.l.l.k.k.k.k.k.h.l.k.k.a.h.u.w.P.6 Q T { m.b.b.W # M M + } n.b.b.! ! ! ( D.X.j.k.k.a.6.a.z.k.z.k.l.l.k.k.k.k.k.k.h.k.",
"k.k.k.x.k.k.k.k.a.k.k.k.z.z.l.l.k.z.x.f.w.P.6 Q T { m.b.b.W Q # . z b.m.b.n.! ! ! ( D.X.p.k.h.k.k.z.l.k.k.a.a.k.k.k.z.z.k.k.k.z.",
"x.z.z.k.z.l.k.a.a.k.z.z.x.c.k.k.k.z.c.f.w.P.6 Q T { M.b.b.W [ { { T } n.b.n.! ! ! ( D.X.j.k.l.l.z.k.l.l.k.a.a.k.l.z.x.z.k.l.k.z.",
"x.x.k.l.a.z.k.a.k.z.x.x.z.z.z.k.k.c.x.s.w.P.6 Q Y { V.b.b.W [ b.b.T } m.b.n.! ! ! ( D.X.p.z.z.z.z.z.k.k.k.a.k.l.z.x.x.z.z.h.k.x.",
"z.k.k.h.k.k.k.z.l.z.z.z.k.l.k.k.x.l.k.u.w.P.6 Q T { M.b.b.W [ b.b.T } n.b.n.! ! Q ( D.X.j.x.z.k.k.k.k.k.h.z.k.l.z.l.z.k.k.z.z.l.",
"a.h.a.k.k.k.x.x.k.z.z.k.k.k.a.z.l.l.k.u.w.P.6 Q T { m.b.b.W [ b.b.T } n.b.n.! ! Q ( F.X.p.z.k.a.k.k.l.k.z.z.z.k.l.k.k.k.a.l.l.k.",
"z.a.k.l.k.l.x.k.k.k.l.k.a.a.k.l.a.k.k.2.w.P.6 Q Y ! ' ! ! E [ b.b.T ' ! ! ! ! ! Q ( F.X.p.k.x.k.k.z.k.z.x.z.l.k.l.k.a.a.k.k.a.k.",
"k.z.z.z.a.a.l.k.z.z.k.a.h.k.z.h.k.k.a.>.w.I.6 Q x E T T T T ' b.b.x E T T T E W Q ( F.X.j.c.z.k.x.x.k.h.k.k.z.z.k.a.a.k.x.k.z.k.",
"k.z.z.k.k.k.k.k.k.k.k.k.z.x.z.k.k.z.k.2.w.P.6 Q { m.m.m.m.m.V.b.b.{ m.N.m.m.{ { Q ( F.X.j.l.k.z.z.k.k.k.h.k.k.k.k.k.l.x.l.k.k.l.",
"k.k.z.l.k.a.a.z.k.l.k.k.z.x.l.k.l.z.z.u.w.P.6 Q b.b.b.b.b.b.b.b.b.b.b.b.b.b.b H _ ( D.X.j.a.a.l.z.z.h.a.a.k.l.k.k.k.l.z.z.k.z.l.",
"k.k.k.a.a.a.k.a.k.z.l.k.z.z.l.k.z.z.k.u.w.P.6 Q b.b.b.b.b.b.b.b.b.b.b.b.b.b.@ B g ( D.X.5.a.h.k.l.k.a.a.k.k.k.x.z.k.k.z.l.z.x.l.",
"l.k.k.a.a.a.z.k.l.l.k.k.k.k.a.a.z.l.k.u.w.P.6 Q b.n.n.b.b.b.b.b.b.n.n.n.n.b.T f T ( D.X.5.a.l.k.k.k.a.a.k.z.l.z.k.k.k.k.a.k.z.k.",
"k.k.a.a.l.z.k.l.z.z.z.k.a.a.a.k.a.k.k.u.w.P.6 Q x j j j j j R b.b.c j j j j j T Q ( D.X.7.k.k.k.k.k.k.x.l.k.z.z.l.k.h.a.a.k.a.k.",
"l.x.k.k.l.z.z.l.k.k.k.k.a.a.a.k.l.k.k.u.w.P.6 Q x [ B.V.V.W ' b.b.m { V.V.V.! W Q ( D.X.p.k.z.z.z.h.z.z.z.l.z.l.k.a.a.a.a.k.k.l.",
"x.z.l.k.l.z.l.k.k.k.a.a.k.z.z.z.l.k.k.2.w.P.6 Q Y { m.b.b.W ' b.b.Y } n.b.b.! ! Q ( D.X.p.z.x.z.z.z.k.l.l.k.k.a.a.a.k.z.z.z.k.k.",
"z.k.k.k.l.l.k.a.l.a.k.z.x.z.k.k.l.a.a.u.w.P.6 Q Y { V.b.b.W ' b.b.Y } n.b.b.! ! Q ( D.X.j.z.z.k.k.k.l.z.z.k.k.a.h.l.z.z.l.k.l.a.",
"z.k.k.z.z.k.a.a.k.k.z.k.z.z.k.a.a.a.a.f.w.P.6 Q T { m.b.b.W [ b.b.Y } n.b.b.! ! Q ( D.X.j.z.l.k.k.k.z.k.a.a.k.a.l.k.z.z.k.a.a.6.",
"z.a.k.z.z.k.a.k.k.z.x.z.z.l.k.a.a.a.k.s.w.P.6 Q T { m.b.b.W [ b.b.T } m.b.b.! ! Q ( D.X.j.a.l.k.l.x.z.k.h.k.k.l.x.z.z.k.k.a.6.h.",
"a.h.k.k.k.k.l.a.k.z.z.k.k.h.k.k.k.z.k.s.0.P.6 Q T { m.b.b.W [ b.b.T } n.b.b.! ! Q ( D.X.7.k.a.a.l.k.z.z.z.k.k.z.z.k.k.a.a.a.a.z.",
"a.k.z.l.z.l.k.h.k.k.k.z.h.h.k.k.z.k.z.f.w.P.6 Q Y { m.b.b.W ' b.b.T } n.b.b.! ! Q ( D.X.p.a.a.l.l.l.z.z.k.a.a.a.a.l.a.a.k.k.l.k.",
"x.z.l.x.z.k.k.k.k.l.z.h.a.a.k.l.l.l.z.s.0.P.6 Q Y { M.b.b.W ' b.b.T } n.b.b.! ! Q ( D.X.7.k.z.z.z.x.z.z.k.k.k.k.z.h.a.a.h.l.l.z.",
"c.k.z.z.k.k.a.a.l.z.l.k.a.k.k.z.z.z.z.u.0.P.6 Q Y { m.b.b.W ' b.b.T } n.b.b.! ! Q ( D.X.p.z.x.z.l.z.l.k.k.a.k.z.l.k.a.k.l.k.z.z.",
"x.k.k.a.k.k.k.l.z.z.k.k.k.k.k.k.l.k.k.2.0.P.6 Q Y ! E E E W ' b.b.T W E E E ! ! Q ( D.X.j.x.x.k.l.a.k.k.k.k.z.z.l.k.k.k.k.k.k.l.",
"l.a.i.a.z.k.z.l.z.l.k.k.k.k.k.l.k.a.a.3.0.L.6 Q W } } { } { N.b.b.W { } } } } ] Q ( D. .p.z.z.a.a.a.k.k.k.l.z.l.k.k.k.k.k.l.k.a.",
"k.k.k.z.z.k.k.k.k.k.k.k.k.k.l.k.a.k.k.*.9 N O Q b.b.b.b.b.b.b.b.b.b.b.b.b.b.b.b.Q 4 N : -.k.k.k.a.l.z.k.k.k.k.k.k.k.k.k.z.k.a.a.",
"l.k.z.z.z.k.k.a.a.k.k.k.x.z.a.k.k.z.z.^ T.T.6 Q b.b.b.b.b.b.b.b.b.b.b.b.b.b.b.b.Q ( R.R.&.h.k.z.l.z.k.k.a.a.a.k.k.k.x.x.k.k.a.k.",
"x.z.l.k.k.l.k.a.a.z.z.x.x.z.k.k.k.z.z.A I.R.6 Q b.b.{ b.b.b.b.b.b.b.b.b.b.b.b.b.Q ( I.G.$.k.x.x.z.k.k.k.k.a.a.k.z.x.x.z.k.k.k.z.",
"x.k.h.k.a.k.a.l.k.k.z.x.z.k.l.k.l.z.x.a L.R.6 U Q Q Q Q Q Q Q Q Q Q Q Q Q Q Q Q R ( I.G.$.z.z.z.k.k.a.k.k.l.k.l.z.z.z.k.z.k.z.x.",
"h.k.a.a.k.h.z.z.z.z.z.k.k.k.a.k.x.z.k.a r.r.C 5 5 5 5 5 5 5 5 5 5 5 5 5 5 5 5 5 5 ..e.q.%.l.k.a.a.a.k.k.z.z.k.z.z.k.k.k.a.k.x.k.",
"l.k.a.k.k.z.x.z.k.k.z.k.a.a.a.k.k.k.l.y A.A.J.A.H.H.H.H.H.A.A.A.A.A.J.H.A.A.H.A.A.J.A.Z.$.k.k.k.a.k.k.z.x.z.k.k.l.z.a.k.k.k.k.k.",
"l.k.z.z.a.k.z.k.z.z.k.a.a.a.z.k.k.k.a.i 0 0 * - - - - - - - - - - - - - * - - - - 7 8 8 &.z.x.k.z.x.k.a.x.z.z.l.l.a.a.a.z.k.k.k.",
"k.z.z.k.h.k.k.k.l.k.a.h.k.z.z.k.z.l.k.a.k.z.3 d K J K d J L J K K r d d d d J K t p a.k.l.z.k.l.z.k.k.a.k.k.k.k.k.a.k.z.z.k.k.l.",
"k.l.l.k.a.a.k.k.k.k.k.k.z.z.z.k.k.x.z.k.l.z.1 P J K J P K P K I P J K J K J r J P w k.k.c.k.a.z.z.l.k.a.k.k.k.k.k.k.k.z.z.k.k.x.",
"h.k.z.k.k.a.k.k.z.z.l.k.k.x.z.z.x.z.l.l.k.*.t J I I K K P P P L I I I P J K K J P = g.k.k.a.a.k.z.k.k.a.a.k.z.z.z.k.k.x.z.z.x.l.",
"k.k.k.a.6.k.z.l.l.z.k.k.l.k.a.a.z.l.k.z.z.=.; , 2 , < 2 , , , , , < 1 2 2 2 , , , = j.k.a.a.k.k.k.a.a.a.k.z.k.z.l.k.k.h.a.k.z.k.",
"k.k.a.k.a.z.k.k.x.x.k.k.a.a.a.k.k.k.z.z.k.k.1.1.1.<.<.:.4.<.1.y.4.1.<.<.;.:.<.<.<.3.z.k.a.l.k.k.a.h.k.k.l.k.x.x.k.k.k.a.a.k.l.k.",
"k.k.a.a.z.x.l.x.k.z.l.k.a.a.a.a.l.l.l.k.k.k.k.k.k.l.a.z.z.z.z.l.l.l.k.a.a.k.k.k.z.k.k.a.z.k.k.k.k.a.z.z.z.z.l.z.z.k.k.a.k.k.k.l.",
"z.z.l.k.k.z.k.k.k.k.a.a.a.k.k.k.z.k.k.a.h.k.l.z.z.z.k.k.z.l.k.k.k.k.a.k.k.k.z.k.l.k.k.a.k.z.x.z.l.k.k.l.k.k.k.k.k.a.a.k.k.z.k.k.",
"z.z.l.k.k.z.z.k.l.a.a.k.z.z.z.k.z.k.k.k.k.z.z.z.z.k.l.k.k.z.k.z.a.a.k.z.z.z.k.l.k.k.k.l.x.z.z.l.l.k.z.z.z.k.z.a.a.k.z.z.z.l.z.l.",
"k.k.k.k.z.z.h.a.k.k.l.k.z.z.k.a.k.a.a.z.x.l.z.l.k.k.k.z.l.k.a.k.k.l.z.z.z.k.a.a.a.k.z.z.k.z.l.k.k.k.z.z.k.a.k.a.z.l.z.z.l.a.a.a.",
"z.k.a.z.z.k.a.k.k.k.z.k.z.z.k.a.a.a.k.z.a.z.a.z.h.k.z.z.k.a.k.z.k.k.k.z.z.k.a.a.a.k.z.k.z.k.x.k.a.z.z.a.a.a.l.k.l.z.z.z.k.a.a.a."
};
