/* XPM */
static char *_444276718fb4ef089358e5bf42f9d31FKmOS9BGCDzTNKjz[] = {
/* columns rows colors chars-per-pixel */
"64 64 242 2 ",
"   c #2F1932",
".  c #381A37",
"X  c #3C2726",
"o  c #3E130A",
"O  c #4A1B06",
"+  c #48180A",
"@  c #531C0B",
"#  c #5B1C15",
"$  c #471D19",
"%  c #671C16",
"&  c #781917",
"*  c #61190F",
"=  c #5A2403",
"-  c #5D220A",
";  c #502B1B",
":  c #46211F",
">  c #682906",
",  c #783503",
"<  c #662416",
"1  c #792C1D",
"2  c #793417",
"3  c #6F2F09",
"4  c #581B25",
"5  c #49133A",
"6  c #581936",
"7  c #461520",
"8  c #6B1B30",
"9  c #7A2E26",
"0  c #742D24",
"q  c #7D3324",
"w  c #75322B",
"e  c #763737",
"r  c #6B2F30",
"t  c #50262A",
"y  c #381A46",
"u  c #2F1A4C",
"i  c #2D2C55",
"p  c #5A1657",
"a  c #49174F",
"s  c #661E47",
"d  c #7B1D57",
"f  c #7A194F",
"g  c #702C4D",
"h  c #591F72",
"j  c #631A64",
"k  c #791769",
"l  c #771A75",
"z  c #522269",
"x  c #592A78",
"c  c #49317A",
"v  c #67276E",
"b  c #732770",
"n  c #374875",
"m  c #784846",
"M  c #4C4376",
"N  c #654B6F",
"B  c #881819",
"V  c #A91A1F",
"C  c #833D01",
"Z  c #873808",
"A  c #983F0C",
"S  c #862A1D",
"D  c #833718",
"F  c #97371A",
"G  c #922D1E",
"H  c #981E21",
"J  c #AB1D21",
"K  c #B41D22",
"L  c #85382B",
"P  c #963B25",
"I  c #843A35",
"U  c #883B37",
"Y  c #942C31",
"T  c #B02D30",
"R  c #AA291E",
"E  c #C62F30",
"W  c #8A4401",
"Q  c #8D4804",
"!  c #874607",
"~  c #924701",
"^  c #954B01",
"/  c #9A4E01",
"(  c #94470C",
")  c #9B5508",
"_  c #924415",
"`  c #894317",
"'  c #A55B04",
"]  c #AC5D02",
"[  c #A55805",
"{  c #A65A17",
"}  c #B65E17",
"|  c #AC6307",
" . c #B36302",
".. c #B86B06",
"X. c #BF7207",
"o. c #B06F14",
"O. c #95422C",
"+. c #9B4629",
"@. c #98512C",
"#. c #8C423D",
"$. c #994A37",
"%. c #9A5434",
"&. c #894B2E",
"*. c #A94B29",
"=. c #B84A2C",
"-. c #A6552C",
";. c #B4532C",
":. c #A64B34",
">. c #A95637",
",. c #BB5A36",
"<. c #B04830",
"1. c #B96239",
"2. c #AE682B",
"3. c #C06F02",
"4. c #CB7C0A",
"5. c #C47608",
"6. c #C27D14",
"7. c #CD533A",
"8. c #C7663C",
"9. c #D26C3C",
"0. c #841C56",
"q. c #901E4C",
"w. c #832756",
"e. c #97254B",
"r. c #A82658",
"t. c #A8334D",
"y. c #961B70",
"u. c #AA1E64",
"i. c #872374",
"p. c #8F2D6F",
"a. c #B12F6D",
"s. c #CF374C",
"d. c #C23066",
"f. c #CB3873",
"g. c #974A47",
"h. c #9C514F",
"j. c #9B5453",
"k. c #894947",
"l. c #A75C45",
"z. c #A65A58",
"x. c #B55A4B",
"c. c #AA6547",
"v. c #BD6D48",
"b. c #AC6459",
"n. c #B56A59",
"m. c #B7725A",
"M. c #99586D",
"N. c #AF5F61",
"B. c #B76768",
"V. c #B86F6B",
"C. c #84727C",
"Z. c #C95349",
"A. c #C66B45",
"S. c #C97449",
"D. c #D5764A",
"F. c #D77748",
"G. c #D77C53",
"H. c #CB754A",
"J. c #E07C58",
"K. c #C54769",
"L. c #C7776B",
"P. c #C67475",
"I. c #C97978",
"U. c #D47B77",
"Y. c #CD810E",
"T. c #D48505",
"R. c #DA8B05",
"E. c #D4860D",
"W. c #C78618",
"Q. c #D58B13",
"!. c #D68C13",
"~. c #DB9418",
"^. c #DF9107",
"/. c #E39D1C",
"(. c #E4990B",
"). c #E3A01F",
"_. c #D09223",
"`. c #E39E21",
"'. c #E5A324",
"]. c #EAA925",
"[. c #F3BB37",
"{. c #EEB531",
"}. c #D4824A",
"|. c #CD8455",
" X c #DC8C5C",
".X c #DA8658",
"XX c #E48D5A",
"oX c #E3885A",
"OX c #E7925E",
"+X c #E0814F",
"@X c #D28B63",
"#X c #DC8D61",
"$X c #D89568",
"%X c #D5837C",
"&X c #CB876D",
"*X c #E28566",
"=X c #E99662",
"-X c #EB9C6B",
";X c #E69767",
":X c #E79E70",
">X c #EEA373",
",X c #EEA679",
"<X c #EFA877",
"1X c #F1AA7C",
"2X c #F0A877",
"3X c #ECA06E",
"4X c #323282",
"5X c #422A80",
"6X c #7C2988",
"7X c #6A3286",
"8X c #374094",
"9X c #4C508F",
"0X c #8A2987",
"qX c #B02A8B",
"wX c #C13798",
"eX c #8F43A4",
"rX c #8C568F",
"tX c #D07C81",
"yX c #7E8FA3",
"uX c #6B82CA",
"iX c #D88689",
"pX c #DC8D91",
"aX c #DD9194",
"sX c #CF878A",
"dX c #E89599",
"fX c #FE969F",
"gX c #FA979F",
"hX c #EA8D90",
"jX c #F4B287",
"kX c #EFAF86",
"lX c #EE9CA1",
"zX c #FF97A0",
"xX c #F59CA3",
"cX c #FF9DA4",
"vX c #FFA0A7",
"bX c #FFA4AB",
"nX c #FFA9AF",
"mX c #F5A4A9",
"MX c #FFACB2",
"NX c #F6ABB0",
"BX c #FFB1B6",
"VX c #FFB4B8",
/* pixels */
"cXcXbXMXMXbXbXbXcXbXbXbXbXnXMXbXbXbXbXnXnXnXbXbXbXbXMXnXvXbXcXbXbXnXnXbXnXMXbXcXbXbXMXnXbXbXbXbXbXnXMXbXbXcXbXbXbXbXbXbXnXbXbXbX",
"bXbXMXnXnXbXbXvXcXbXbXnXBXBXbXbXbXMXBXBXbXMXbXcXbXbXMXMXxXv.Q ( Q Q L.nXMXbXbXbXMXVXBXbXMXbXvXbXnXnXnXnXbXcXcXnXbXbXMXMXbXbXbXMX",
"BXMXbXbXnXMXbXcXbXMXMXBXBXMXnXbXbXVXBXMXMXbXbXMXMXbXbXL.m.o.~.'.`.].o.V.I.bXbXbXBXMXMXnXbXbXMXMXnXnXnXnXMXzXcXnXnXMXMXBXMXbXbXBX",
"MXbXbXcXbXbXbXMXbXnXMXBXBXbXMXMXnXMXMXMXMXnXMXBXMXbXb.) W.[.'./.'._.Q.| ) n.bXMXMXMXnXMXnXMXBXMXbXbXbXnXbXnXbXMXMXMXMXnXMXnXMXBX",
"bXcXcXcXbXbXMXBXbXMXnXbXbXbXbXbXBXnXbXbXbXbXBXbXcXL.[ E.'.{./.].6.' ' Y.Q.o.L.MXMXbXbXcXbXnXbXbXvXcXbXcXbXMXbXMXnXbXvXbXbXbXMXnX",
"MXcXcXbXbXMXBXBXbXbXbXMXcXcXcXbXbXbXbXbXcXbXbXMXn.) ~.]./.'.~.W.{ }.|.) ~.{.@.bXbXbXbXbXbXbXMXbXcXnXbXnXMXMXbXbXnXMXbXcXvXbXbXbX",
"nXbXMXBXcXbXMXbXMXnXMXcXcXcXMXbXbXbXcXfXzXbXMXm.{ Q.E.~.{.Q.4.} D.1XjXS.Q ~.[ n.bXcXcXcXbXMXMXbXMXBXbXcXMXbXMXbXMXcXfXcXbXbXbXbX",
"bXMXBXnXbXcXbXbXbXMXbXcXbXMXMXbXbXbXcXcXbXMXBX@.W.!.4.~.~.!.' D &.$XjX%.O | 4.@.bXvXcXbXnXMXbXnXBXnXbXcXbXbXbXnXbXcXvXMXMXbXMXbX",
"bXMXnXbXcXcXcXbXbXbXbXbXMXMXMXbXbXMXbXbXMXMXbX@.Y...].].E...{ m X 1.1X; % _.4.o.m.MXbXnXBXbXcXMXMXMXbXcXbXbXbXbXbXbXbXBXMXbXbXMX",
"bXbXnXbXbXcXvXvXMXMXbXbXnXBXMXbXVXMXMXMXbXcX>.| 3.'.Q./.].[ c.C.yX$X1XM 4 ' !.' c.bXMXbXbXcXcXbXMXbXbXcXcXbXnXMXbXbXbXBXMXnXMXMX",
"nXbXcXcXcXcXMXbXnXBXnXbXMXMXbXcXBXMXbXMXbXfX%.W.E./.E.{.X.A .XkXkXjXjX:X0 ] '.2.mXnXbXMXfXcXbXnXbXcXcXcXnXbXnXMXMXvXnXbXbXbXBXbX",
"nXbXcXcXbXMXnXbXBXBXnXbXbXbXcXcXnXbXMXnXbXc.o.4.'.!.].!.E.| -.-X1XXXP |.1 | '...c.MXBXnXbXbXbXbXcXbXcXMXbXbXMXBXbXbXcXcXcXbXbXcX",
"bXbXbXvXnXMXnXMXMXMXMXbXcXcXcXcXbXnXMXbXcXdX2.] ~.{.5.5.5.Q D .X+X<.R > ^ ' 4.5.>.dXbXvXbXbXbXbXnXcXMXMXMXnXMXMXMXbXcXcXbXbXbXbX",
"BXMXnXbXMXMXbXbXnXbXcXcXcXbXbXMXbXbXbXcXbXl.| X.'.~...4.' ! < +.v.}.1 , C ] ' ^ { I.bXcXbXbXMXVXMXbXbXMXnXbXbXbXbXcXcXbXbXnXbXbX",
"MXnXbXnXbXbXbXcXnXcXfXbXBXBXMXnXMXnXbXbXMX&XD ' Y...]  .Y., D +.< D 3 , C ~ ~ W c.nXbXbXMXBXBXnXnXMXnXbXnXbXbXcXcXbXMXMXMXnXMXbX",
"MXbXbXbXMXMXvXcXbXcXMXnXMXnXbXcXbXcXbXBXMXbX%.~  . . .~  ., -.9.*.; = , C ~ W ` U.cXMXBXbXMXMXbXbXbXMXMXbXcXbXcXMXbXMXnXbXcXcXcX",
"MXbXbXMXMXcXcXbXbXbXMXMXMXMXbXcXfXcXbXMXbXMX%X` / / C ( ! _ <.F.F.@.X O = C ` U.cXbXMXbXMXbXMXbXbXMXMXbXcXbXMXbXnXMXMXnXbXcXcXcX",
"vXcXbXMXMXbXbXbXbXMXMXMXbXbXcXcXbXnXbXMXbXnXcX%X_ 3 -.D.-.I a.Z.D..Xc.s + > U.cXMXbXMXbXbXbXbXcXbXMXBXbXbXbXbXMXBXMXbXbXbXcXcXbX",
"cXbXbXbXMXMXbXcXbXbXbXbXcXcXbXcXMXnXBXMXbXbXcXcXI -.-X>XH.s a.d.a.*X=XZ.d - n.MXnXMXMXbXvXbXfXbXnXbXMXMXbXcXbXbXbXnXcXcXbXvXnXbX",
"bXMXbXMXMXbXcXbXcXbXnXbXcXcXbXnXbXbXBXMXbXbXbXbXI @X1XXX,.% p.K.f.a.G.XXa.=.e nXbXBXnXbXvXcXMXBXbXBXMXbXbXbXbXbXbXbXvXcXcXbXbXnX",
"VXMXMXMXMXbXbXvXbXMXnXcXcXcXbXnXMXMXbXbXbXbXbXj.A.,XOX1.> t x 0XK.d.eXa.eXuX8Xk.MXMXbXbXbXbXBXMXMXnXnXbXbXcXbXnXMXbXcXcXvXnXMXBX",
"MXbXnXbXbXbXvXbXMXMXnXbXbXbXbXbXMXbXbXcXcXMXh.,.:XkX8.< F : u e.r.s.7.y.y.eX4Xe nXbXcXbXnXBXMXbXbXbXbXbXbXbXnXMXMXbXbXbXbXnXMXMX",
"MXcXcXcXbXbXbXnXMXnXnXnXbXbXbXbXbXbXcXbXbXmXg.@X,XA.L iXO $ i a p k T G z j 7 m vXcXbXbXnXMXMXbXcXcXvXbXbXMXMXMXbXbXbXbXbXbXnXbX",
"bXbXcXbXBXvXnXnXbXbXbXbXbXvXnXbXbXcXvXbXlXz.S.;XA.#.xXaXO #   . u p d 0.j u e vXcXbXMXbXMXbXbXcXfXcXMXbXMXbXnXnXbXbXbXbXbXbXvXbX",
"bXbXbXBXbXbXbXbXcXbXbXbXMXMXnXnXbXMXVXMXz.>.>X=Xq dXBXaX@ L 4 y i w.E T z o I bXMXBXnXbXbXbXvXbXbXMXnXbXbXcXcXbXbXbXMXMXbXbXbXMX",
"BXMXMXbXMXnXbXcXcXbXMXMXBXVXbXbXbXMXVXBXb.>.,X1Xc.V.bXaX@ x.M.y d t.E M 5X+ O.tXMXBXMXbXnXbXnXnXMXbXnXnXbXcXcXbXnXMXBXMXbXnXbXMX",
"BXBXbXnXcXMXbXcXbXMXBXBXMXMXMXbXbXVXBXMXiX$.S.>X>Xc.V.pX= -.g a b 7Xa.6Xq.@ ;.$.sXMXMXMXbXMXMXMXMXMXbXbXbXcXbXnXMXBXBXMXMXvXbXBX",
"MXbXbXvXbXbXbXMXnXMXMXMXbXnXbXbXBXnXbXnXnXiX$.H.>X>X>.k.> ~ 4 0.i.6XwXqX0.O ;.,.j.nXbXnXMXBXMXbXbXbXbXbXvXMXbXnXMXbXMXbXbXMXMXnX",
"cXvXcXbXbXbXBXBXbXMXMXbXbXbXcXMXnXnXbXbXcXnX%.D 1.G.oX*.Z A S w.i.a.s.qXl . q A.l.I.bXcXbXMXbXcXbXbXnXbXMXMXMXbXnXbXbXbXcXnXnXbX",
"MXcXbXnXbXnXBXbXbXbXnXbXcXcXbXnXcXbXbXcXcXbX%., L.O.D.=XD.;.F w.0Xy.a.u.0Xi < 9.v.B.cXbXbXbXBXbXbXMXbXMXBXMXnXbXnXbXcXcXbXbXcXbX",
"bXMXMXMXcXcXnXbXMXMXbXcXvXbXMXvXbXbXcXfXcXn.o.! iXdXL D.;XD.D f y.x 6X7Xt.i . P F.$.I.cXnXVXMXbXBXBXbXvXbXbXMXMXbXcXcXbXBXbXMXbX",
"bXMXMXbXbXbXbXbXbXbXbXbXMXBXMXbXbXMXbXbXbXl.Q 3 pXMXpX2 8.P 1 d r.N x i.v i.u # ;.O.V.MXnXnXbXMXMXbXbXbXvXbXbXbXbXbXnXBXnXbXbXnX",
"bXbXMXnXbXcXcXMXbXnXbXbXMXBXnXbXnXMXMXMXm.( , , 2 2 3 = 3 ( 5 x t.N x v 7Xs.p g P.-.O.P.BXcXcXnXMXMXvXcXcXbXnXbXbXbXnXMXMXbXMXnX",
"bXbXbXcXcXcXbXcXbXMXnXbXMXMXnXbXMXMXbXnXb.^ 3.T.R.(.(.T.[ O 5 Y s.s.j k u.9Xh N %XD.+XP P.fXvXbXnXbXcXcXbXbXbXBXMXbXbXMXnXMXBXnX",
"nXbXbXcXcXcXMXbXnXnXbXbXbXbXcXcXMXbXbXmXc.' T.R.R.R.R.T.] > . e.s.rXn j qXp 4Xe I.l.OXD.S U.bXbXbXbXcXcXbXMXnXMXbXbXbXbXcXbXMXbX",
"bXbXcXcXnXMXbXnXMXMXMXbXcXcXcXbXcXbXbXL.W 3.R.5.T.R.^.R.' >   d r.b p.v 6XT 0.e bXV.:.P P 1 I.bXbXbXbXBXnXbXMXMXnXbXvXcXcXbXcXbX",
"nXBXbXbXnXMXMXnXbXbXbXbXcXcXcXbXnXbXnXL.W  .X.^ ..R.(.T. .>   z 7Xb t.M c y.T e bXbXz.P S S j.nXMXvXMXMXMXnXMXnXbXcXcXcXcXbXbXnX",
"BXMXnXbXnXMXnXbXbXbXcXcXbXMXMXMXnXbXbXL.W ' ^ / /  ... .] >   x 0Xr.b 9Xw.k e.e nXbXU.B.I z.NXMXMXMXbXnXnXbXbXcXcXcXbXMXMXMXbXbX",
"MXbXbXbXnXnXbXcXnXcXbXMXBXMXbXbXnXcXcXL.C ' ] ' ]  . . ./ = 5 w.p.l l g T l z e cXbXMXMXiXmXMXbXbXbXnXMXMXbXbXcXvXnXMXMXnXbXnXcX",
"MXbXbXMXMXbXcXcXbXbXMXbXMXMXbXcXcXcXcXdX%., W W Q ~ / ' , @ 5 b b a 6 1 S 8 . e cXbXMXbXMXMXnXbXbXbXMXbXcXcXbXcXnXbXMXMXbXcXcXfX",
"MXcXbXMXMXbXcXbXbXMXBXMXMXnXbXcXcXcXnXMXhX%XU.%XU.%X> 3 > * 8 6 M.sXr +.<.>.0 tXbXMXnXbXMXcXnXbXnXBXMXbXvXbXbXnXBXMXMXbXbXcXfXvX",
"cXvXbXbXbXbXnXcXbXMXMXbXbXvXbXbXbXMXbXMXbXbXvXcXcXbX< *.,.;.D j.mXnXe ,.XX XI bXnXbXBXbXbXbXcXcXnXbXMXMXMXbXbXMXMXbXbXcXcXcXcXMX",
"cXbXMXnXMXnXbXvXbXbXbXMXvXvXbXbXMXbXMXBXbXvXcXcXnXnX1 F.OX8.1 B.cXbXe A.-X#XI MXbXMXMXbXbXcXcXnXnXnXMXMXbXcXcXcXcXnXcXcXbXbXnXbX",
"BXMXnXBXMXbXbXbXbXnXMXvXcXcXbXnXnXnXMXnXbXcXnXBXMXMX0 =X=X1.z.xXnXnXI G.-X.XI bXMXBXbXbXbXbXMXMXMXBXMXMXbXbXbXbXMXvXcXcXvXnXnXMX",
"VXbXMXMXbXbXcXcXnXMXnXbXcXbXbXMXMXMXMXbXbXMXMXBXnXw 8.=XXX+.N.bXMXnXI G.F.A.k.BXMXMXbXbXbXMXBXMXnXMXnXbXbXcXbXMXnXbXcXbXnXbXMXMX",
"BXbXbXcXbXbXbXnXMXMXbXbXbXbXbXbXnXbXbXcXbXMXMXBXdXL ;XF.1.g.bXMXnXdXU #XXX0 bXMXnXbXcXbXnXBXBXbXnXcXbXbXbXbXMXMXnXbXbXbXbXbXbXnX",
"nXcXzXcXMXbXMXnXMXnXbXbXbXbXbXnXbXcXcXbXbXMXMXdXO.S.-X8.P B.nXnXbXg.8.-XOX9 bXbXbXbXbXbXnXMXMXcXcXcXbXbXbXnXMXnXbXbXbXbXbXnXbXcX",
"bXbXbXMXMXbXbXbXbXbXbXbXbXbXnXbXcXbXbXbXnXMXbXU A.3X-X;.e bXbXbXbXg.S.>X-X9 bXbXbXbXbXMXMXbXbXbXcXnXMXbXbXbXbXbXbXbXbXbXMXbXcXcX",
"nXbXMXMXMXbXbXcXcXbXbXbXBXMXcXbXbXMXMXBXbXnXbXU @X2X XO.B.bXcXcXbXg.8.>X>X9 bXbXnXVXMXbXbXvXbXMXnXMXbXbXcXcXcXbXbXbXBXBXbXbXcXbX",
"BXMXnXbXbXnXbXcXcXMXMXBXBXMXbXbXbXMXMXMXMXnXbX#.@X>X8.w nXbXcXbXbXsX:.;X1X9 bXbXBXMXMXnXbXbXBXBXMXbXbXbXbXcXcXbXMXBXBXMXbXbXbXMX",
"BXbXvXbXcXbXcXnXbXbXMXBXMXbXnXbXnXMXBXbXMXbXMX#.@X=XO.I.bXbXbXbXnXMXU  X<Xq nXMXMXMXbXMXnXMXMXMXbXbXcXbXbXnXbXnXMXMXMXbXMXbXMXBX",
"vXbXcXcXbXvXMXMXMXMXMXbXbXbXcXbXBXMXbXbXbXbXnX#.@XF.9 bXcXMXMXMXMXMXU A.>X9 bXMXnXbXbXcXbXnXbXcXcXcXbXbXMXMXbXMXMXbXbXbXcXbXBXbX",
"nXbXcXbXbXMXBXMXbXbXMXbXcXcXcXbXbXbXnXcXbXbXbX#.|.L pXbXMXMXBXbXbXbXdXU ;X9 bXbXbXMXcXbXbXbXbXbXcXbXbXMXBXMXbXbXnXMXcXbXbXbXbXbX",
"nXbXMXMXcXbXMXbXMXMXbXcXcXcXMXbXbXbXcXcXcXnXBXA.#Xq mXcXcXBXnXMXbXbXcXL  X8.bXbXbXcXzXcXbXMXBXbXMXBXbXcXBXMXMXnXnXcXcXcXMXbXbXbX",
"bXMXMXbXvXbXbXbXnXbXcXvXbXMXMXbXMXnXbXcXbXMXj.A.-Xq xXbXcXbXbXMXbXbXcXL  XXXbXMXMXcXcXbXnXMXbXnXMXbXbXcXbXbXbXbXbXcXbXMXMXbXbXnX",
"bXnXnXbXcXcXbXbXbXbXbXbXMXMXMXbXbXBXMXbXbXNXg.S.-Xq mXbXcXcXbXbXbXbXe H G.#XU MXMXnXbXbXVXbXcXMXMXnXbXcXbXbXbXbXbXbXbXMXMXbXbXBX",
"vXbXMXbXbXcXbXbXMXMXnXbXbXBXMXMXBXMXbXnXbXh.J *X-Xq xXbXcXvXbXMXnXMXw J oX;Xx.NXMXnXbXbXbXcXcXbXMXbXbXcXcXbXMXMXMXbXbXBXMXMXBXnX",
"bXbXbXcXfXbXMXnXnXMXbXbXnXbXcXcXMXnXbXMXMXh.J *X,Xq gXcXcXnXnXbXMXMXw B V J.S.#.nXbXbXbXcXcXbXbXbXcXcXcXbXMXbXMXnXbXbXvXcXbXMXbX",
"bXbXcXbXcXMXbXbXBXBXbXbXcXcXcXbXbXbXMXMXbXh.B G.>X+.xXcXMXbXbXBXMXbXw * g.J 7.Y iXbXMXbXcXnXbXbXcXvXbXbXnXbXBXBXbXbXbXcXcXbXnXbX",
"bXbXcXcXMXBXnXBXbXMXnXbXcXcXcXcXnXnXnXbXbXh.% ,.;XD.B.MXMXMXMXnXnXnXw # hX% E K Y iXbXcXMXbXbXbXbXcXMXMXMXMXnXMXMXbXbXcXbXbXbXnX",
"MXMXnXbXbXMXbXbXbXbXcXcXcXbXbXbXMXbXbXcXvXh.g.Y 7.Z.H B.MXnXbXbXbXbXV.B.xXN.B & & U iXbXbXMXBXMXnXbXbXnXbXbXbXbXbXcXcXbXbXMXbXbX",
"MXMXnXbXbXMXMXbXnXcXcXbXMXMXMXbXMXbXbXbXbXaXlXI H J K 9 bXMXbXMXcXcXbXMXMXnXP.P.P.P.dXMXBXMXMXbXnXbXMXMXMXbXMXcXcXbXMXMXMXnXMXnX",
"bXbXbXbXMXMXvXcXbXbXnXbXMXMXbXcXbXcXcXMXBXnXMXsXS & B w MXbXcXbXbXnXMXMXMXbXcXcXcXbXMXMXbXMXnXbXbXbXMXMXbXcXbXcXMXnXMXMXnXcXcXcX",
"MXbXcXMXMXbXcXbXbXbXMXbXMXMXbXcXcXcXbXMXcXMXcXMXiXiXiXpXbXcXbXMXbXbXbXMXMXbXcXcXcXbXMXbXMXbXBXbXcXMXMXcXcXcXnXbXnXMXMXMXbXcXcXcX"
};
