/* XPM */
static char *_8f2263435b04c97800a8443c57d9bbapi5MBnoDPxmDGMyp[] = {
/* columns rows colors chars-per-pixel */
"64 64 219 2 ",
"   c #0E143D",
".  c #14173F",
"X  c #281E3C",
"o  c #35263E",
"O  c #44293A",
"+  c #4D333F",
"@  c #562A31",
"#  c #6A3939",
"$  c #713A36",
"%  c #6C423F",
"&  c #77413E",
"*  c #0F1541",
"=  c #101643",
"-  c #131945",
";  c #1A1B43",
":  c #131B4B",
">  c #1C1F4A",
",  c #161D54",
"<  c #181F59",
"1  c #181F57",
"2  c #211F45",
"3  c #15214C",
"4  c #1A215D",
"5  c #162559",
"6  c #232345",
"7  c #2A2547",
"8  c #322A4C",
"9  c #372945",
"0  c #272751",
"q  c #372E53",
"w  c #3F3154",
"e  c #39305B",
"r  c #353555",
"t  c #1C2464",
"y  c #192A63",
"u  c #1D276C",
"i  c #1C2A6D",
"p  c #1C356C",
"a  c #1E2B73",
"s  c #1D3578",
"d  c #22296D",
"f  c #20276C",
"g  c #3B3366",
"h  c #222B74",
"j  c #242E7C",
"k  c #263676",
"l  c #2C376D",
"z  c #442C45",
"x  c #45394A",
"c  c #4A3645",
"v  c #513844",
"b  c #413354",
"n  c #4C3A5B",
"m  c #4B3957",
"M  c #573D59",
"N  c #633C44",
"B  c #24437D",
"V  c #394676",
"C  c #684547",
"Z  c #754A43",
"A  c #7A4844",
"S  c #6E514F",
"D  c #7C5149",
"F  c #61425D",
"G  c #684F5D",
"H  c #785955",
"J  c #7B4A55",
"K  c #5D4363",
"L  c #594669",
"P  c #474B77",
"I  c #564678",
"U  c #544B6D",
"Y  c #624662",
"T  c #624B64",
"R  c #6D4C67",
"E  c #734E69",
"W  c #6A5569",
"Q  c #78566B",
"!  c #795873",
"~  c #645373",
"^  c #6B627B",
"/  c #4D475D",
"(  c #814542",
")  c #835549",
"_  c #8C5C4B",
"`  c #845648",
"'  c #925556",
"]  c #905F4B",
"[  c #94634E",
"{  c #84685A",
"}  c #976852",
"|  c #9D7258",
" . c #8D604D",
".. c #A37559",
"X. c #A5795B",
"o. c #AB7D5D",
"O. c #82566E",
"+. c #865868",
"@. c #885C74",
"#. c #945C72",
"$. c #8A6679",
"%. c #9A6275",
"&. c #91657A",
"*. c #9A687D",
"=. c #957867",
"-. c #A56A7A",
";. c #AA707A",
":. c #A6646A",
">. c #AF815E",
",. c #B2825F",
"<. c #B48562",
"1. c #BB8C65",
"2. c #B78863",
"3. c #BC906B",
"4. c #AF8160",
"5. c #C59669",
"6. c #DBAB74",
"7. c #DDB179",
"8. c #D0A06D",
"9. c #E1B378",
"0. c #1F3881",
"q. c #253184",
"w. c #223A84",
"e. c #28348B",
"r. c #25388C",
"t. c #293692",
"y. c #2A3B9C",
"u. c #273994",
"i. c #262F81",
"p. c #2B3CA3",
"a. c #2C3EAA",
"s. c #254A8D",
"d. c #264786",
"f. c #264797",
"g. c #355797",
"h. c #334E91",
"j. c #2B42A4",
"k. c #2C41AC",
"l. c #284AA5",
"z. c #2A58A9",
"x. c #2C44B4",
"c. c #2D4BB5",
"v. c #2D46BA",
"b. c #2D4ABD",
"n. c #2E51BD",
"m. c #2D5AB5",
"M. c #3255BB",
"N. c #344DB2",
"B. c #2E63B7",
"V. c #3466BA",
"C. c #3D60A3",
"Z. c #474983",
"A. c #475A94",
"S. c #4C5189",
"D. c #6E5889",
"F. c #556496",
"G. c #4662A5",
"H. c #5778B3",
"J. c #7F67A3",
"K. c #2D4DC0",
"L. c #2E54C4",
"P. c #2F59C4",
"I. c #2F5BC9",
"U. c #305DCA",
"Y. c #3262C4",
"T. c #3163CE",
"R. c #346CC7",
"E. c #3372CB",
"W. c #3265D1",
"Q. c #346CD4",
"!. c #346FD8",
"~. c #3574DC",
"^. c #377ADD",
"/. c #3676D5",
"(. c #2F60CD",
"). c #377AE2",
"_. c #387CE3",
"`. c #4D7AC1",
"'. c #815F84",
"]. c #9B6C8C",
"[. c #896890",
"{. c #A66E80",
"}. c #AD7282",
"|. c #A47185",
" X c #B67787",
".X c #8A6EA5",
"XX c #AD7DA1",
"oX c #C77B8A",
"OX c #6688BC",
"+X c #B18E93",
"@X c #CE828E",
"#X c #C8858B",
"$X c #CE8A95",
"%X c #CA8A96",
"&X c #D68894",
"*X c #D9919B",
"=X c #CF919B",
"-X c #E4939C",
";X c #EA949D",
":X c #FF969F",
">X c #F2979E",
",X c #E58D97",
"<X c #EB97A0",
"1X c #E69BA4",
"2X c #EB9BA3",
"3X c #FF97A0",
"4X c #F39DA5",
"5X c #FF9CA4",
"6X c #F09FA8",
"7X c #ECA3A9",
"8X c #FFA0A7",
"9X c #F6A4AA",
"0X c #FFA4AB",
"qX c #FFA9AE",
"wX c #F5A7AD",
"eX c #FFACB2",
"rX c #FFB1B6",
"tX c #FFB4B8",
"yX c #D890A0",
/* pixels */
"5X5X0XeXeX0X0X0X5X0X0X0X0XqXeX0X0X0X0XqXqXqX0X0X0X0XeXqX8X0X5X0X0XqX0X0XqXeX0X5X0X0XeXqX0X0X0X0X0XqXeX0X0X5X0X0X0X0X0X0XqX0X0X0X",
"0X0XeXqXqX0X0X8X5X0X0XqXrXrX0X0X0XeXrXrX0XeX0X5X0X0XeXeX0X0X5X5X0X8X0XrXeX0X0X0XeXtXrX0XeX0X8X0XqXqXqXqX0X5X5XqX0X0XeXeX0X0X0XeX",
"rXeX0X0XqXeX0X5X0XeXeXrXrXeXqX0X0XtXrXeXeX0X0XeXeX0X0X0X0X0X:X5X0XeXtXeXrXqX0X0XrXeXeXqX0X0XeXeXqXqXqXqXeX3X5XqXqXeXeXrXeX0X0XrX",
"eX0X0X5X0X0X0XeX0XqXeXrXrX0XeXeXqXeXeXeXeXqXeXrXeX0X0X5X0X8X0X0XqXeXrXeXqXeX0XeXeXeXqXeXqXeXrXeX0X0X0XqX0XqX0XeXeXeXeXqXeXqXeXrX",
"0X5X5X5X0X0XeXrX0XeXqX0X0X0X0X0XrXqX0X0X0X0XrX0X5X5X5X0X8XeXrX0XeXqX0X0X5X5X0XeXeX0X0X5X0XqX0X0X8X5X0X5X0XeX0XeXqX0X8X0X0X0XeXqX",
"eX5X5X0X0XeXrXrX0X0X0XeX5X5X5X0X0X0X0X0X5X0X0XeX0X5X0X0XeXrXeXqX0XeXeX5X0X5XqX0X0X0X0X0X0X0XeX0X5XqX0XqXeXeX0X0XqXeX0X5X8X0X0X0X",
"qX0XeXrX5X0XeX0XeXqXeX5X5X5XeX0X0X0X5X:X3X0XeXeX8XeXrX0X5XeX0XeX0X0X5X5X5XeX0X0X0X5X5X5X0XeXeX0XeXrX0X5XeX0XeX0XeX5X:X5X0X0X0X0X",
"0XeXrXqX0X5X0X0X0XeX0X5X0XeXeX0X0X0X5X5X0XeXrX0XqXrXqX0X0X0X0XqXeX0X5X0XeXeX5XeX0X8X5X0XqXeX0XqXrXqX0X5X0X0X0XqX0X5X8XeXeX0XeX0X",
"0XeXqX0X5X5X5X0X0X0X0X0XeXeXeX0X0XeX0X0XeXrX0X5XeXqX0X0X5X8X0X0X0X0X0XeXrXrX0X0XrXeX0XqXrX0X5XeXeXeX0X5X0X0X0X0X0X0X0XrXeX0X0XeX",
"0X0XqX0X0X5X8X8XeXeX0X0XqXrXeX0XrXeXeXeX0X5X5X0X0XeX0X0X5X5X0XqXeXeX0X0XrXrXeXeXrX0XeX0X0X5X5X0XeX0X0X5X5X0XqXeX0X0X0XrXeXqXeXeX",
"qX0X5X5X5X5XeX0XqXrXqX0XeXeX0X5XrXeX0XeX0X:X5X0XqX0X5X:X:XqX0X0XeXeX0X0XeX0X5XeXqXqX0XeX:X5X0XqX0X5X5X5XqX0XqXeXeX8XqX0X0X0XrX0X",
"qX0X5X5X0XeXqX0XrXrXqX0X0X0X5X5XqX0XeXqX0X0X0XqX0X5X0X5XeX0X0XrXrXR w w w oX0X0X0XeXrXqX0X0X0X0X5X0X5XeX0X0XeXrX0X0X5X5X5X0X0X5X",
"0X0X0X8XqXeXqXeXeXeXeX0X5X5X5X5X0XqXeX0X5X0X5X0X0X0X5XeXeXeXqXeX@.V B B d.T @X0X0XeX0X8X0X0X0X0XqX5XeXeXeXqXeXeXeX0X5X5X0X0X0X0X",
"rXeXqX0XeXeX0X0XqX0X5X5X5X0X0XeX0X0X0X5X0X0XeXrXeXqX0XqXeXqX4X2X> B././.).5 &.;X0X0X0X5X0X0XeXtXqX2X2X7X9X0X0X0X0X5X5X0X0XqX0X0X",
"eXqX0XqX0X0X0X5XqX5X:X0XrXrXeXqXeXqX0X0XeXeXeXeX0X0XqX0XeXeX-.  ^.m O o ).v.t M 0XqX0X0XeXrXrXqX X* * * Q 0X0X5X5X0XeXeXeXqXeX0X",
"eX0X0X0XeXeX8X5X0X5XeXqXeXqX0X5X0X5X0XrXeX0XeX0X0X0XqXeXeX@.P B.K D v 6 _.L.i M 5X5XeXrX0XeXeX@.P B.m.l.k m 0X5XeX0XeXqX0X5X5X5X",
"eX0X0XeXeX5X5X0X0X0XeXeXeXeX0X5X:X5X0XeX0XeX0X0X0X0XeXeX0XY s ~.Z ` v 3 ).P.q.g #.4XeX0XeX0X*.P d.A.h.n.f.i &.<XqXeXeXqX0X5X5X5X",
"8X5X0XeXeX0X0X0X0XeXeXeX0X0X5X5X0XqX0XeX0XqX5X0X5X0XeXeX;XL k M.) ) c 3 ).P.a.h = <XeX0X0X;Xr g.A.# X z.P.x.  =XrXeX0X0X0X5X5X0X",
"5X0X0X0XeXeX0X5X0X0X0X0X5X5X0X5XeXqXrXeX0X0X5X5X5XqX0XeX8 f.A.# .._ z : ).L.x.q.* 2XrX0X;X* E.U # ) ; B.W.b.  $X0XqX5X5X0X8XqX0X",
"0XeX0XeXeX0X5X0X5X0XqX0X5X5X0XqX0X0XrXeX0X0X0X0XeX0X7X; l.L Z [ ) 9 s.E.I.b.x.a.t.=  X0X;X= R.~ Z Z ; B.W.K.k.: &.0X8X5X5X0X0XqX",
"tXeXeXeXeX0X0X8X0XeXqX5X5X5X0XqXeXeX0X0X0X0X0XtXeXeX7X= m.~ ` _ Z 7 s.~.K.b.v.a.u.=  X-.q E.T Z Z C ; B.W.K.v., &.0X5X5X8XqXeXrX",
"eX0XqX0X0X0X8X0XeXeXqX0X0X0X0X0XeX0X0X5X5XeXrXrXqX=X*.i A.Q _ D c l l.W.b.v.v.a.t.= E ~ h G.S Z C + k V.U.b.b.u L }.0X0X0XqXeXeX",
"eX5X5X5X0X0X0XqXeXqXqXqX0X0X0X0X0X0X5X0X0XeXrXeX0X&.: I.N [ } Z ; z.P.K.b.v.k.y.e.= = s c.@ D Z v * /.U.K.b.v.y.t 8 0X0X0X0XqX0X",
"0X0X5X0XrX8XqXqX0X0X0X0X0X8XqX0X0X5X8X0XeXeX0X0X0X#.: ~.C [ } Z . B.T.b.v.x.y.q.h = = s n.@ C % +   ^.U.K.b.b.y.t 8 0X0X0X0X8X0X",
"0X0X0XrX0X0X0X0X5X0X0X0XeXeXqXqX0XeXrXeXeXqX0X0XM s N.# X...S . P.n.b.v.x.u.q.h t = f.h.O ) Z 9 y n.L.K.b.v.v.y.t 8 eXeX0X0X0XeX",
"rXeXeX0XeXqX0X5X5X0XeXeXrXtX0X0X0XeXtXrX0XqX0XeXK 0.Y.} 4...S   !.L.v.x.a.e.t 4 t = z.A.% ) 9 k z.!.K.b.b.v.x.q.4 8 rXeX0XqX0XeX",
"rXrX0XqX5XeX0X5X0XeXrXrXeXeXeX0X0XtXrXeXeX0XqX*.Z.h.F.<.>.H / w.T.b.x.a.t.u 4 4 1 d.A.^ _ ) 2 f.(.W.b.b.v.x.y.h , 8 rXeXeX8X0XrX",
"eX0X0X8X0X0X0XeXqXeXeXeX0XqX0X0XrXqX0XqXqXqXrX* B.F._ 1.X.x p ~.n.x.p.y.q.= 4 4 = ^.W _ .._ 6 l.U.L.b.b.x.p.e.t : 8 eX0X0XeXeXqX",
"5X8X5X0X0X0XrXrX0XeXeX0X0X0X5XeXqXqX0X0X5XqXqX  # } 1.1...x p ^.b.y.i.f : j 4 =   ^.+X1.| * E.U.b.K.b.x.p.e.h : &.0X0X0X5XqXqX0X",
"eX5X0XqX0XqXrX0X0X0XqX0X5X5X0XqX5X0X0X5X5X X8 R.W [ 2.X.9 h.Y.n.p.j 4 : = d , p E.H 3.1.| * E.U.b.b.b.p.e.h d = &.0X5X5X0X0X5X0X",
"0XeXeXeX5X5XqX0XeXeX0X5X8X0XeX8X0X0X5X:X5X-.  ^ =.,.2.| 6 z.Q.x.e.4 K %.* d , p _.3.8.=.x z.Y.L.b.b.x.e.h t d = @.5X5X0XrX0XeX0X",
"0XeXeX0X0X0X0X0X0X0X0X0XeXrXeX0X0XeX0X0X-X$.5 [ <.1.<.H l m.T.a.h e *.1X= t y B `.7.9.{ : _.P.b.b.b.u.j u 4 t w {.0XqXrXqX0X0XqX",
"0X0XeXqX0X5X5XeX0XqX0X0XeXrXqX0XqXeXeXeX! p ).o.1.2.X.* E.T.c.u.= oX0X-X= * z.H.} 9.6.{ : _.I.K.b.k.= , t h * $X0X0XqXeXeX0XeXqX",
"0X0X0X5X5X5X0X5X0XeXqX0XeXeXqX0XeXeX0Xn h.G.N o.2.>.} * E.U.j.q.= +X5X-X= * z.OX8.7.5.H : _.P.x.u.: * 4 h h * =XeX0X0XeXqXeXrXqX",
"qX0X0X5X5X5XeX0XqXqX0X0X0X0X5X5XeX6XM g.S.W } ,.<.{ w z.P.x.q.,  X2X0X-X= z.F.=.6.6.H V l.T.b.a.q.* -.e u t.* =X0X0X0X0X5X0XeX0X",
"0X0X5X5XqXeX0XqXeXeXeX0X,X X X X X}.y C.~ _ o.>.X.S : ~.b.p.h * wXqX*X{.p G.$.,.6.8.x s P.L.x.e.d b <Xn u y.* =XqX0X8X5X5X0X5X0X",
"qXrX0X0XqXeXeXqX0X0X0X0X*.= * = = - I.M _ X.o.o. .v - ).b.y.u   9X0XO.: ).H 1.6.8.1.x s P.K.a.t q 8XeXn u p.* $X0X5X5X5X5X0X0XqX",
"rXeXqX0XqXeXqX0XqX0X5XF T 1X1X1X1X&X# [ _ D ` Z 9 h c.b.p.t K 1X5Xn j N.A o.5.5.>.6 f.L.L.x.e.1 q eX0Xn u p.* @X5X5X0XeXeXeX0X0X",
"eX0X0X0XqXqX0X5XqX5XM &.;.' ' M *.>X[ A + 7 7 7 h.m.x.p.e.4 Y qXm h.Z.F ..<.1.2.X.; m.T.c.t.1 E #X0XqXn u p.* oX8XqXeXeXqX0XqX5X",
"eX0X0XeXeX0X5X5X2XO.! :.@.I S.0 M :...& o 5 s.s.V.n.y.u t : 8 ! s.Z.W ] <.<.<.| C d.m.M.p.j : &.0X0XeXn u p.* @XqX0XeXeX0X5X5X:X",
"eX5X0XeXeX0X5X2X X8 %X+.I P._.p z A } Z 9 s ^.).U.p.j 8 8 8 8 8 V.G [ ,.<.<.X.H , Q.b.p.e.d 0 -.qXrXeXn u p.* $XrXeXeX0X0X5X:X8X",
"5X8X0X0X0X0XqXO.6 eX( Z.L.W.).c..X2X$ X r.P.!.U.k.i 2 eXeXeX0X0X# } o.<.<.<.` K b.b.a.t.j = &X5XqX0XeXn u p.* $XeX0X0X5X5X5X5XeX",
"5X0XeXqXeXqX0XO.6 0X& G.Q.U.r.XX;.& ; f.P.U.U.c.u K #XA A z E 8X..x 7 7 7 7 g.R.K.b.a.e.h = &XqXqXqXeXn u p.* @X5XqX5X5X0X0XqX0X",
"rXeXqXrXeX0X0XO.; E ;.! S.I ].-.J 9 w.c.P.P.b.e.D.'..XS.Z.l g R #X/ u w.f.f.Y.W.K.x.y.h , $.7XeXeXrXeXn z & * $XeX8X5X5X8XqXqXeX",
"tX0XeXeX0X0X*XR , 5  X' ( A 0XJ 9 y L.b.b.x.j.g |.[.j.~.U.j.l 8 9XI f.P.^.~.W.U.K.k.t.t   eXrXeXqXeXqXn O & = =XqX0X5X0XqX0XeXeX",
"rX0X0X5X0X0XK u y.L.: }.0X0X0Xw 0.K.K.b.k.t.j wXI r.W.).U.y.D.eXeXn r.T.!.T.I.L.b.t.j t   eXeX8X0X5X0Xn O & * $XqX0X0X0X0X0X0XqX",
"qX5X3X5XeX0XL w.U.^.c.t ; ; ; u.x.x.y.e.q.u = 9XD.l.T.Q.u.].].> ; e.c.P.U.L.b.v.a.j u 1   2X2X;X;X;X2Xm ; ; = $X0X0X0X0X0XqX0X5X",
"0X0X0XeXeX0XK s.!.).P.j.e.q.j y.p.u.j u 4 t j I ].J.c.r.].yX*.* t.k.b.b.K.b.b.k.e.h , K  X-X-X-X;X2X1X X}.}. X6X0X0X0X0XeX0X5X5X",
"qX0XeXeXeX0X{.P s.s.w.s a u u i u t 1 L w y m.r.D.[..X'.@.! L u x.x.x.v.v.x.p.e.j 1 : R 1X-X;X2X2X2X2X2X>X4X5X0X0X0XrXrX0XqX5X0X",
"rXeXqX0X0XqX0X%.b b b b b b b b b b w %X! p Q.I.r.D.*X*Xe , i a.x.x.x.x.k.y.q.h u = 8 @.-X2XwXwXqX0X0X0X0X5X5X0XeXrXrXeX0X0X0XeX",
"rX0X8X0X5X0X5XqX9X6X7X7X2X2X2X<X2X1X7X2X! y b.(.T.f.= = * j a.a.x.p.p.a.t.q.h t = = -.2X2XwXeXeX0X0X5X0X8X0X0XqXeXeXeX0XeX0XeXrX",
"8X0X5X5X0X8XeXeXeXeXqX0X0X0X5X0XeXeX0X0X! 5 t.u.y.e.j h h j q.q.q.t , , , : : n #X#X*X>X0XqX0X5X5X5X0X0XeXeX0XeXeX0X0X0X5X0XrX0X",
"qX0X5X0X0XeXrXeX0X0XeX0X5X5X5X0X0X0XqX5X@XE 1 4 4 1 1 , , , , , , = n %.#.%.*.}.2X9X3X0X0X0X0X0X5X0X0XeXrXeX0X0XqXeX5X0X0X0X0X0X",
"qX0XeXeX5X0XeX0XeXeX0X5X5X5XeX0X0X0X5X5X5X#XT Y Y T Y F F T Y T Y F %.,X;X2X6X9X0X5X3X5X0XeXrX0XeXrX0X5XrXeXeXqXqX5X5X5XeX0X0X0X",
"0XeXeX0X8X0X0X0XqX0X5X8X0XeXeX0XeXqX0X5X0XeXeX4X6X7X2X;X;X2X;X2X2X<X4X0XqXeX0XeXeX5X5X0XqXeX0XqXeX0X0X5X0X0XqX0X0X5X0XeXeX0X0XqX",
"0XqXqX0X5X5X0X0X0X0X0X0XeXeXeX0X0XrXeX0XqXtX0X5XeXeXeX0X5X5X0X0X0X0X5XqXrXeX0XeXeXqX0X0XtX0X5XeXeXqX0X5X0X0X0X0X0X0X0XeXeX0X0XrX",
"8X0XeX0X0X5X0X0XeXeXqX0X0XrXeXeXrXeXqXqX0X0X5X5X0XeX0X0X5X8X0XeXqXeX0X0XrXeXeXrXeXeX0X0X0X5X5X0XeX0X0X5X5X0XeXeXeX0X0XrXeXeXrXqX",
"0X0X0X5X:X0XeXqXqXeX0X0XqX0X5X5XeXqX0XeXeX5X5X0XqX0X5X5X5XqXqX0XeXeX0XeXeX0X5XeXqX0X0X0X5X5X0X0X0X5X5X5X0XeX0XeXqX0X0X8X5X0XeX0X",
"0X0X5X0X5XeX0X0XrXrX0X0X5X5X5X0X0X0XeXeX0X0X0XqX0X0X0X5XeX0X0XrXeX0X0X0X5X5X0X0X0X0XeX0X5XqX0X0X5X8X0X0XqX0XrXrX0X0X0X5X5X0XqX0X",
"0X0X5X5XeXrXqXrX0XeXqX0X5X5X5X5XqXqXqX0X0X0X0X0X0XqX5XeXeXeXeXqXqXqX0X5X5X0X0X0XeX0X0X5XeX0X0X0X0X5XeXeXeXeXqXeXeX0X0X5X0X0X0XqX",
"eXeXqX0X0XeX0X0X0X0X5X5X5X0X0X0XeX0X0X5X8X0XqXeXeXeX0X0XeXqX0X0X0X0X5X0X0X0XeX0XqX0X0X5X0XeXrXeXqX0X0XqX0X0X0X0X0X5X5X0X0XeX0X0X",
"eXeXqX0X0XeXeX0XqX5X5X0XeXeXeX0XeX0X0X0X0XeXeXeXeX0XqX0X0XeX0XeX5X5X0XeXeXeX0XqX0X0X0XqXrXeXeXqXqX0XeXeXeX0XeX5X5X0XeXeXeXqXeXqX",
"0X0X0X0XeXeX8X5X0X0XqX0XeXeX0X5X0X5X5XeXrXqXeXqX0X0X0XeXqX0X5X0X0XqXeXeXeX0X5X5X5X0XeXeX0XeXqX0X0X0XeXeX0X5X0X5XeXqXeXeXqX5X5X5X",
"eX0X5XeXeX0X5X0X0X0XeX0XeXeX0X5X5X5X0XeX5XeX5XeX8X0XeXeX0X5X0XeX0X0X0XeXeX0X5X5X5X0XeX0XeX0XrX0X5XeXeX5X5X5XqX0XqXeXeXeX0X5X5X5X"
};
