/* XPM */
static char *_b6890f3edfb4b28964d00a01481c5c8Hd9IDGFwcwIK6mxw[] = {
/* columns rows colors chars-per-pixel */
"64 64 191 2 ",
"   c #5B5143",
".  c #515D50",
"X  c #675144",
"o  c #685144",
"O  c #695B4A",
"+  c #755C4C",
"@  c #7E5853",
"#  c #676A56",
"$  c #776B58",
"%  c #76765D",
"&  c #5E7662",
"*  c #6D6F63",
"=  c #776E64",
"-  c #647664",
";  c #6D7265",
":  c #687468",
">  c #7E7465",
",  c #7A7966",
"<  c #865B4F",
"1  c #895D4F",
"2  c #875C50",
"3  c #8A5E51",
"4  c #8E6153",
"5  c #926357",
"6  c #936458",
"7  c #897F5F",
"8  c #A6715C",
"9  c #996964",
"0  c #817665",
"q  c #83766A",
"w  c #8C7D6E",
"e  c #8E7A67",
"r  c #997A62",
"t  c #9B766B",
"y  c #977667",
"u  c #A46E6D",
"i  c #B57761",
"p  c #BD7C63",
"a  c #B57A62",
"s  c #AD6F70",
"d  c #AE7575",
"f  c #AD7979",
"g  c #A97B74",
"h  c #B37E77",
"j  c #B37D79",
"k  c #B47674",
"l  c #C17E64",
"z  c #5D8A6F",
"x  c #58816A",
"c  c #5F8A70",
"v  c #67876D",
"b  c #638E73",
"n  c #7D8D74",
"m  c #659175",
"M  c #6B9679",
"N  c #6D9C7D",
"B  c #6A9375",
"V  c #72997B",
"C  c #7D9D7C",
"Z  c #6EA17F",
"A  c #888264",
"S  c #9B8568",
"D  c #8D867C",
"F  c #9C8C75",
"G  c #988774",
"H  c #8E9673",
"J  c #949876",
"K  c #A3856C",
"L  c #A78A6F",
"P  c #A68A70",
"I  c #A88B70",
"U  c #AB887A",
"Y  c #B2837B",
"T  c #B2887F",
"R  c #BD827E",
"E  c #B49475",
"W  c #B69974",
"Q  c #B0A57E",
"!  c #C68166",
"~  c #CA8467",
"^  c #CC8668",
"/  c #CF8869",
"(  c #D28A6A",
")  c #6F9E80",
"_  c #729E80",
"`  c #789D83",
"'  c #6FA280",
"]  c #71A381",
"[  c #7AA587",
"{  c #76AA86",
"}  c #79AB87",
"|  c #7BA789",
" . c #77AD88",
".. c #7BAD8A",
"X. c #7BB18B",
"o. c #7FB88F",
"O. c #9F9486",
"+. c #B28980",
"@. c #AE9A81",
"#. c #A99D8B",
"$. c #BE9685",
"%. c #BF9989",
"&. c #B69D83",
"*. c #80A984",
"=. c #81B28E",
"-. c #9AAF9F",
";. c #83B490",
":. c #82BB91",
">. c #8ABD93",
",. c #8DBC99",
"<. c #8DB699",
"1. c #96B29E",
"2. c #99B09F",
"3. c #AFA28D",
"4. c #BBA389",
"5. c #B0A28F",
"6. c #AFA391",
"7. c #B2A592",
"8. c #B5A995",
"9. c #C28C89",
"0. c #C09786",
"q. c #C09A89",
"w. c #DD8F92",
"e. c #DD9699",
"r. c #DE9B9D",
"t. c #DE9094",
"y. c #E38D93",
"u. c #E49197",
"i. c #E39599",
"p. c #E3999D",
"a. c #EE979D",
"s. c #FE969E",
"d. c #CCAD8B",
"f. c #D4AF89",
"g. c #CFB28F",
"h. c #D4B08A",
"j. c #CAB496",
"k. c #C8B89E",
"l. c #D3B694",
"z. c #D6BA97",
"x. c #D4BB9C",
"c. c #E3BF96",
"v. c #E29EA1",
"b. c #FF97A0",
"n. c #FF9CA4",
"m. c #F39EA4",
"M. c #FFA0A7",
"N. c #FFA4AB",
"B. c #FFA9AE",
"V. c #F5A4A9",
"C. c #FFACB2",
"Z. c #FFB1B6",
"A. c #FFB4B8",
"S. c #86C296",
"D. c #88C397",
"F. c #8BC599",
"G. c #8FC89C",
"H. c #92C49C",
"J. c #92CA9D",
"K. c #99CDA2",
"L. c #97CDA2",
"P. c #AECEAA",
"I. c #A3CAA5",
"U. c #B0CFAB",
"Y. c #E6C197",
"T. c #E6C199",
"R. c #E8C399",
"E. c #EEC89C",
"W. c #F0C79C",
"Q. c #F0C89C",
"!. c #F1C99D",
"~. c #DFC8A7",
"^. c #DFC8A8",
"/. c #D7C0A0",
"(. c #E5CDAA",
"). c #E0C8A7",
"_. c #F2CEA2",
"`. c #F4CDA1",
"'. c #F4CEA2",
"]. c #F2CEA3",
"[. c #F4D1A5",
"{. c #F6D6AD",
"}. c #F6D6AD",
"|. c #F7D8AE",
" X c #F9D9AF",
".X c #F8D6AA",
"XX c #ECD7B4",
"oX c #F2DEBA",
"OX c #F0DBB8",
"+X c #FADBB1",
"@X c #F4E1BD",
/* pixels */
"n.n.N.C.C.N.N.N.n.N.N.N.N.B.C.N.y j.j.j.j.j.j.j.j.j.j.j.j.j.j.j.j.j.j.j.j.j.j.j.j.j.j.j.j.j.j.y N.B.C.N.N.n.N.N.N.N.N.N.B.N.N.N.",
"N.N.C.B.B.N.N.M.n.N.N.B.Z.Z.N.N.y R.R.R.R.T.R.R.R.R.R.R.R.R.R.R.R.R.R.R.R.R.R.R.R.R.R.R.R.R.R.t B.B.B.B.N.n.n.B.N.N.C.C.N.N.N.C.",
"Z.C.N.N.B.C.N.n.N.C.C.Z.Z.C.B.N.R K I I L P I P P L L L P P L L L L L P L P I P P L P L I I K 9.B.B.B.B.C.b.n.B.B.C.C.Z.C.N.N.Z.",
"C.N.N.n.N.N.N.C.N.B.C.Z.Z.N.C.C.i.d.Q.Q.Q.Q.Q.Q.Q.Q.W.Q.Q.Q.Q.Q.Q.Q.Q.Q.Q.Q.Q.W.W.Q.Q.Q.W.Q.E p.N.N.N.B.N.B.N.C.C.C.C.B.C.B.C.Z.",
"N.n.n.n.N.N.C.Z.N.C.B.N.N.N.N.N.v.g.`.`.`.].`.`.`.`.`.`.].`.`.`.`.`.].`.].`.`.`.`.`.`.`.`.`.E u.M.n.N.n.N.C.N.C.B.N.M.N.N.N.C.B.",
"C.n.n.N.N.C.Z.Z.N.N.N.C.n.n.n.N.N.t r r + o o X o o o o X X o o o o o o X o o o X o o + r r g N.n.B.N.B.C.C.N.N.B.C.N.n.M.N.N.N.",
"B.N.C.Z.n.N.C.N.C.B.C.n.n.n.C.N.N.$.Y.T.$ : : : : : : : : : : : : : : : : : : : : : : e c.c.h N.C.Z.N.n.C.N.C.N.C.n.s.n.N.N.N.N.",
"N.C.Z.B.N.n.N.N.N.C.N.n.N.C.C.N.N.%.].{.> [ <.1.2.2.2.2.2.2.2.-.-.2.2.2.2.2.2.2.1.<.[ G ].{.Y B.Z.B.N.n.N.N.N.B.N.n.M.C.C.N.C.N.",
"N.C.B.N.n.n.n.N.N.N.N.N.C.C.C.N.N.%.].}.> | :.> w w w w = w w w w w q q w w w w = D.[ G ].}.h C.C.C.N.n.N.N.N.N.N.N.N.Z.C.N.N.C.",
"N.N.B.N.N.n.M.M.C.C.N.N.B.Z.C.N.Z.%.[.}.0 | :.P g.l.z.l.w l.z.z.l.l.@.&.l.l.l.d.0 D.[ F ].}.Y N.C.N.N.n.n.N.B.C.N.N.N.Z.C.B.C.C.",
"B.N.n.n.n.n.C.N.B.Z.B.N.C.C.N.n.Z.q.[.}.0 | :.@.(.XX@XoXO.XX@X@XOXoXk.k.oXoXoX(.0 D.| F ].|.Y B.N.n.n.n.B.N.B.C.C.M.B.N.N.N.Z.N.",
"B.N.n.n.N.C.B.N.Z.Z.B.N.N.N.n.n.B.q.[.}.> | :.D 5.7.8.7.D 6.8.7.7.7.O.#.7.7.3.#.> D.| F ].}.Y N.n.N.n.C.N.N.C.Z.N.N.n.n.n.N.N.n.",
"N.N.N.M.B.C.B.C.C.C.C.N.n.n.n.n.N.q.[.}.> | G.P.P.P.P.U.U.U.U.U.U.U.P.P.P.P.P.P.I.F.| F ].}.Y N.B.n.C.C.C.B.C.C.C.N.n.n.N.N.N.N.",
"Z.C.B.N.C.C.N.N.B.N.n.n.n.N.N.C.N.%.[.}.0 | D.F.F.F.F.F.F.F.F.F.F.F.F.F.F.F.F.F.D.F.| F ].}.Y A.C.N.N.C.B.N.N.N.N.n.n.N.N.B.N.N.",
"C.B.N.B.N.N.N.n.B.n.s.N.Z.Z.C.B.C.%.[.}.> | :.z z z z z z z o.D.S.{ z c z z z z z D.| F ].|.T B.B.C.B.N.B.N.N.n.n.N.C.C.C.B.C.N.",
"C.N.N.N.C.C.M.n.N.n.C.B.C.B.N.n.N.q.[.}.> | :.N ..;.;.;...M X.D.D.] ] =.;.;.;.] b F.[ F ].}.Y N.N.N.C.C.N.n.N.n.C.N.C.B.N.n.n.n.",
"C.N.N.C.C.n.n.N.N.N.C.C.C.C.N.n.s.0.[.}.0 | :...H.J.J.J.=.] :.=.*.N X.K.J.J.J.X.N D.| F ].|.T N.N.C.C.N.n.N.C.N.B.C.C.B.N.n.n.n.",
"M.n.N.C.C.N.N.N.N.C.C.C.N.N.n.n.N.q.[.}.0 | :...H.D.S.D.X.] ] A S v X.L.S.S.S. .Z F.[ F ].}.Y n.N.C.Z.N.N.N.N.C.Z.C.N.N.N.n.n.N.",
"n.N.N.N.C.C.N.n.N.N.N.N.n.n.N.n.C.q.[.}.0 | :...H.D.S.D.X.{ # $ O . X.L.S.S.S. .' F.| F ].}.h N.B.N.C.C.N.n.N.N.N.B.n.n.N.M.B.N.",
"N.C.N.C.C.N.n.N.n.N.B.N.n.n.N.B.N.%.[.}.0 | :...H.D.S.D.X.B % - # A ] L.S.S.D. .' F.| F ].}.T Z.N.Z.C.N.N.N.N.N.N.N.M.n.n.N.N.B.",
"A.C.C.C.C.N.N.M.N.C.B.n.n.n.N.B.C.q.[.}.0 | :...H.D.S.S.X.b # C v 7 ] L.S.S.D. .' F.| F ].}.+.C.C.B.B.N.N.n.N.B.C.N.n.n.M.B.C.Z.",
"C.N.B.N.N.N.M.N.C.C.B.N.N.N.N.N.C.%.[.}.0 | :...H.D.S.D.X.M $ H J # ] L.S.S.S. .] D.| F ].}.T N.N.N.N.N.N.N.B.C.C.N.N.N.N.B.C.C.",
"C.n.n.n.N.N.N.B.C.B.B.B.N.N.N.N.N.%.[.}.0 | :...H.D.D.S.X.] V O   & X.L.S.S.S. .] F.| F ].}.T N.M.n.M.N.N.C.C.C.N.N.N.N.N.N.B.N.",
"N.N.n.N.Z.M.B.B.N.N.N.N.N.M.B.N.N.0.[.}.0 | :.X.H.D.S.D.X.] ,.] ] N X.L.S.S.S. .' F.| F ].|.Y n.s.n.C.N.C.N.B.B.N.N.N.N.N.N.M.N.",
"N.N.N.Z.N.N.N.N.n.N.N.N.C.C.B.B.N.q.[.}.0 | :...H.D.S.S.X.] H.S.S.] X.L.S.S.S. .' D.| F ].|.Y N.N.C.B.N.N.n.n.N.N.N.C.C.N.N.N.C.",
"Z.C.C.N.C.B.N.n.n.N.C.C.Z.A.N.N.N.q.[.}.0 | :...H.F.S.D.X.] H.S.S.] X.K.D.S.D. .' D.| F ].|.T B.C.N.B.B.N.n.n.N.B.C.Z.C.N.B.N.C.",
"Z.Z.N.B.n.C.N.n.N.C.Z.Z.C.C.C.N.N.q.[.}.0 | :...H.D.S.S.X.] H.S.S.] X.L.S.S.D. .] D.| F ].|.T C.C.C.N.N.N.n.N.B.C.Z.Z.C.C.M.N.Z.",
"C.N.N.M.N.N.N.C.B.C.C.C.N.B.N.N.Z.q.[.}.0 | :...H.D.S.S.X.] H.S.S.] X.L.S.S.D. .' F.| F ].|.Y N.N.N.N.N.M.C.N.B.C.B.C.N.N.C.C.B.",
"n.M.n.N.N.N.Z.Z.N.C.C.N.N.N.n.C.B.q.[.|.0 | :...H.D.S.S.X.] H.S.S.] X.L.S.S.D. .] F.| F ].|.Y n.N.N.B.N.C.C.C.N.B.N.N.N.n.B.B.N.",
"C.n.N.B.N.B.Z.N.N.N.B.N.n.n.N.B.n.q.[.}.0 | :...] ] Z Z N ] H.S.S.' X.] ] ' ' ] ' D.[ F ].|.+.N.N.C.N.C.Z.C.B.N.B.N.n.n.N.N.n.N.",
"N.C.C.C.n.n.B.N.C.C.N.n.M.N.C.M.N.q.[.|.0 | :.M ] ] ] _ ) M H.S.S.] N ] _ _ _ N b D.| F ].|.Y N.Z.Z.N.M.N.N.C.C.N.n.n.N.Z.N.C.N.",
"N.C.C.N.N.N.N.N.N.N.N.N.C.Z.C.N.N.%.[.}.0 | S.F.J.J.J.J.J.J.J.S.S.S.J.J.J.J.J.F.>.>.| F ].|.Y C.C.N.N.N.M.N.N.N.N.N.B.Z.B.N.N.B.",
"N.N.C.B.N.n.n.C.N.B.N.N.C.Z.B.N.B.q.[.|.0 ..S.S.S.S.S.S.S.S.S.S.S.S.S.S.S.S.S.=.J Q [ F ].|.Y B.C.C.M.n.n.N.B.N.N.N.B.C.C.N.C.B.",
"N.N.N.n.n.n.N.n.N.C.B.N.C.C.B.N.C.q.[.}.0 ..S.S.S.S.S.S.S.S.S.S.S.S.S.S.S.S.S., W W n F ].|.Y N.B.N.n.n.N.N.N.Z.C.N.N.C.B.C.Z.B.",
"B.N.N.n.n.n.C.N.B.B.N.N.N.N.n.n.C.%.[.}.0 | S.S.S.S.S.S.S.S.S.S.S.S.S.S.S.S.S.V # % B F ].|.Y N.N.N.n.n.N.C.B.C.N.N.N.N.n.N.C.N.",
"N.N.n.n.B.C.N.B.C.C.C.N.n.n.n.N.n.q.[.|.> | :.' ' ' Z Z Z Z D.S.S.X.Z ' Z Z Z N c :.[ F ].|.Y N.N.N.N.Z.B.N.C.C.B.N.M.n.n.N.n.N.",
"B.Z.N.N.B.C.C.B.N.N.N.N.n.n.n.N.B.%.[.}.> | o.b m m m m m c H.S.S.Z m m m m m m x D.[ F ].|.T C.C.M.C.C.C.B.C.B.N.n.n.n.n.N.N.B.",
"Z.C.B.N.B.C.B.N.N.N.n.n.N.C.C.C.B.%.[.}.> | :...H.L.L.L.:.] H.S.S.' X.K.L.L.L.X.] F.| F ].|.T C.C.C.N.B.B.N.N.n.n.n.N.C.C.C.N.N.",
"C.N.N.N.B.B.N.n.B.n.N.C.Z.C.N.N.B.$.[.}.0 | :...H.D.S.S.X.] H.S.S.' X.L.S.S.S...] F.| F ].|.Y N.N.N.B.C.C.N.N.n.M.B.C.C.B.N.B.n.",
"C.N.N.C.C.N.n.n.N.N.C.N.C.C.N.n.n.$.[.}.0 | :...H.F.S.S.X.] H.S.S.] X.L.S.S.S. .' D.| F ].|.T N.N.N.C.N.n.n.N.n.B.N.C.C.N.n.n.s.",
"C.n.N.C.C.N.n.N.N.C.Z.C.C.B.N.n.n.$.[.}.0 | :...H.D.S.S.X.] H.S.S.] X.L.S.S.S. .] D.| F ].}.T N.B.Z.C.N.M.N.N.B.Z.C.C.N.N.n.s.M.",
"n.M.N.N.N.N.B.n.N.C.C.N.N.M.N.N.N.%.[.}.0 | :...H.D.S.S.X.] H.S.S.] X.L.D.S.S...] D.| F ].}.h n.B.N.C.C.C.N.N.C.C.N.N.n.n.n.n.C.",
"n.N.C.B.C.B.N.M.N.N.N.C.M.M.N.N.C.%.[.}.0 | :...H.D.S.S.X.] H.S.S.] X.L.S.S.S...] D.[ F ].}.Y B.B.B.C.C.N.n.n.n.n.B.n.n.N.N.B.N.",
"Z.C.B.Z.C.N.N.N.N.B.C.M.n.n.N.B.B.%.[.}.0 | :...H.D.S.S.X.] H.S.S.] X.L.S.S.S...] D.[ F ].}.T C.C.Z.C.C.N.N.N.N.C.M.n.n.M.B.B.C.",
"A.N.C.C.N.N.n.n.B.C.B.N.n.N.N.C.C.%.[.}.0 | :...H.D.S.S.X.] H.S.S.] X.L.S.S.S...] D.[ F ].}.+.C.B.C.B.N.N.n.N.C.B.N.n.N.B.N.C.C.",
"Z.N.N.n.N.N.N.B.C.C.N.N.N.N.N.N.B.%.[.}.0 | :...H.F.S.S.X.] H.S.S.] X.L.S.S.S...] D.[ F ].}.T N.B.n.N.N.N.N.C.C.B.N.N.N.N.N.N.B.",
"B.n.b.n.C.N.C.B.C.B.N.N.N.N.N.B.N.$.[.}.0 | :...H.D.S.S.X.] H.S.S.] X.L.S.S.S...] D.[ F ].}.T n.n.n.N.N.N.B.C.B.N.N.N.N.N.B.N.n.",
"N.N.N.C.C.N.N.N.N.N.N.N.N.N.B.N.n.$.[.}.0 | :...H.D.S.S.X.] H.S.S.] X.L.S.S.S...] D.[ F ].}.Y N.n.B.C.N.N.N.N.N.N.N.N.N.C.N.n.n.",
"B.N.C.C.C.N.N.n.n.N.N.N.Z.C.n.N.N.$.[.}.0 | :...{ { ] ] ] ] H.S.S.] X.{ { ] { { ' S.[ F ].}.Y C.B.C.N.N.n.n.n.N.N.N.Z.Z.N.N.n.N.",
"Z.C.B.N.N.B.N.n.n.C.C.Z.Z.C.N.N.N.%.].{.0 | :.} =.=.=.=.=...K.S.S.....=.=.=.=.=.] D.[ F ].{.+.Z.C.N.N.N.N.n.n.N.C.Z.Z.C.N.N.N.C.",
"Z.N.M.N.n.N.n.B.N.N.C.Z.C.N.B.N.B.$.Y.T.> | S.F.F.F.F.F.F.F.F.S.S.S.F.F.F.F.F.F.F.S.[ S Y.Y.Y B.N.N.M.N.M.B.N.B.C.C.C.N.C.N.C.Z.",
"M.N.n.n.N.M.C.C.C.C.C.N.N.N.n.N.r.U 4.4.$ | S.S.D.S.S.S.S.S.S.S.S.S.S.S.S.S.S.S.D.D.[ 0 4.4.y y.n.n.N.N.C.C.N.C.C.N.N.N.n.N.Z.N.",
"B.N.n.N.N.C.Z.C.N.N.C.N.n.n.n.N.t.l.[.+X0 | S.S.S.S.S.S.S.S.S.S.S.S.S.S.S.S.S.S.S.S.[ F .X[.E u.n.N.N.C.Z.C.N.N.B.C.n.N.N.N.N.N.",
"B.N.C.C.n.N.C.N.C.C.N.n.n.n.C.N.w.l.Q. X0 | S.S.:.:.S.S.:.:.S.S.S.S.S.S.S.:.S.:.:.S.[ F [.E.E u.C.Z.N.n.Z.C.C.B.B.n.n.n.C.N.N.N.",
"N.C.C.N.M.N.N.N.B.N.n.M.N.C.C.N.e.l.Q. X0 ` ............| ..........................` F [.Q.E p.C.N.N.n.N.N.B.N.N.n.N.C.C.N.N.B.",
"N.B.B.N.n.n.N.N.N.N.N.N.C.C.C.N.w.l.`.+Xe * ; ; ; ; ; ; ; ; ; ; ; ; ; ; ; ; ; ; ; ; ; F {.`.E p.C.B.N.n.N.N.N.N.N.N.N.C.C.N.N.Z.",
"M.N.C.N.N.n.N.N.C.C.B.N.N.Z.C.C.r.4.x./.(.).~.^.^.^.~.~.~.~.~.~.~.~.~.~.^.).~.~.~.~.~.(.x.x.F i.C.N.N.n.n.N.C.C.C.N.N.Z.C.C.Z.B.",
"N.N.N.n.s.N.C.B.B.C.N.N.B.N.n.n.e.E h.h.h.f.f.h.h.h.f.f.f.h.f.f.h.f.h.h.h.h.f.f.f.f.f.h.h.h.S i.N.n.n.n.N.C.N.C.B.N.N.M.n.N.C.N.",
"N.N.n.N.n.C.N.N.Z.Z.N.N.n.n.n.N.a.d f f @ 2 3 4 1 3 2 < 1 3 3 3 3 < < < < < 2 3 4 4 < 9 s d d m.n.M.N.N.B.N.Z.Z.N.N.N.n.n.N.B.N.",
"N.N.n.n.C.Z.B.Z.N.C.B.N.n.n.n.n.B.B.B.m.3 ~ ~ ( ~ ^ ~ ^ ( ( ! ( ( ! ! ~ ! ~ ! ~ ~ ^ a u C.N.N.N.N.n.C.C.C.C.B.C.C.N.N.n.N.N.N.B.",
"C.C.B.N.N.C.N.N.N.N.n.n.n.N.N.N.C.N.N.a.8 ( ~ ~ ~ l ^ ! ( ^ ~ ( ~ ~ l ^ ! ~ ~ p l ! ( 9 N.C.Z.C.B.N.N.B.N.N.N.N.N.n.n.N.N.C.N.N.",
"C.C.B.N.N.C.C.N.B.n.n.N.C.C.C.N.C.N.N.k p p p / ~ l p ~ ~ p ^ l ^ ! ~ ~ ! p l p p i ^ 6 r.C.C.B.B.N.C.C.C.N.C.n.n.N.C.C.C.B.C.B.",
"N.N.N.N.C.C.M.n.N.N.B.N.C.C.N.n.N.n.n.j i a p p l p ! p p p a p p p l l l p p a p p p 5 e.C.B.N.N.N.C.C.N.n.N.n.C.B.C.C.B.n.n.n.",
"C.N.n.C.C.N.n.N.N.N.C.N.C.C.N.n.n.n.N.e.4 6 6 6 5 6 6 6 5 5 5 5 5 6 5 6 6 5 6 5 5 6 4 9 V.N.Z.N.n.C.C.n.n.n.B.N.B.C.C.C.N.n.n.n."
};
