/* XPM */
static char *f31ac33f14c04a26c5c673e61edec16dL2fEOHSYfh3BDsvi[] = {
/* columns rows colors chars-per-pixel */
"64 64 92 1 ",
"  c #FE9FA6",
". c #FE9DA4",
"X c #FEA0A7",
"o c #FEADB2",
"O c #FEAAB0",
"+ c #FEA0A8",
"@ c #FEA3AA",
"# c #FEA3A9",
"$ c #FE9FA7",
"% c #FEA4AA",
"& c #FEA2A9",
"* c #FEA9AF",
"= c #FEA1A8",
"- c #FEA6AC",
"; c #FEA7AD",
": c #FEACB1",
"> c #FEA8AE",
", c #FE9EA6",
"< c #FEA4AB",
"1 c #FEA5AC",
"2 c #FE9EA5",
"3 c #FEABB1",
"4 c #FEAAAF",
"5 c #FEA5AB",
"6 c #FE9BA3",
"7 c #FEB1B5",
"8 c #FEB0B5",
"9 c #FEB1B6",
"0 c #FE9AA2",
"q c #FEABB0",
"w c #FE9CA4",
"e c #FEB5B9",
"r c #FEAFB4",
"t c #FEB0B4",
"y c #FEAEB3",
"u c #FE97A0",
"i c #FEB2B6",
"p c #FEAEB2",
"a c #FEA9AE",
"s c #FEB2B7",
"d c #FEB3B7",
"f c #FEAFB3",
"g c #FEA6AD",
"h c #FE959E",
"j c #FE979F",
"k c #FE99A1",
"l c #FFA8AE",
"z c #FEB4B8",
"x c #FEA8AD",
"c c #FEACB2",
"v c #FE9DA5",
"b c #FFAEB3",
"n c #FE9CA3",
"m c #FE99A2",
"M c #FE949C",
"N c #FE969E",
"B c #FEA7AE",
"V c #FE969F",
"C c #FD939C",
"Z c #FEB3B8",
"A c #FEA2AA",
"S c #FEA1A9",
"D c #FEAEB4",
"F c #FEA8AF",
"G c #FE9AA3",
"H c #FE949D",
"J c #FE959D",
"K c #FFA9AF",
"L c #FFB0B5",
"P c #FE98A1",
"I c #FEA2A8",
"U c #FEADB3",
"Y c #FE98A0",
"T c #FD959E",
"R c #FD979F",
"E c #FEA1A7",
"W c #FEA0A6",
"Q c #FE9BA2",
"! c #FEB4B9",
"~ c #FFA5AB",
"^ c #FFA4AA",
"/ c #FFAAB0",
"( c #FE9AA1",
") c #FD939B",
"_ c #FFA2A9",
"` c #FF9FA7",
"' c #FFADB2",
"] c #FFABB1",
"[ c #FEA9B0",
"{ c #FE929B",
"} c #FE959F",
"| c white",
/* pixels */
" .XoO+@#$@%@&*o&X==-*;&X==:>,&X&<>1&*:&2=<34&-5 X>o==X&@<&X@>&% ",
"#%34>@526%&-78&&@>99X*=0%;*q@$2w< <88=@&;er&*=2->4q;+205@<or&<@*",
"rt;&;y1uX>;8ipa#=sdr4<=4f>5;>ghw->drt;==ity;;@:rO-;>Ojk1;ttta@@7",
"y>@2<5$g1q:8rg**>f:a:-*i4@l,&X@g>yz3;o;gro*:>3zq<-1;=<<*yo3>rxoi",
"X00,@=*y;cO=@@=<8-%<$58@wk6@=>9-O>@<,6<ya55v@4-$Xw-X$r;**=X-=%yq",
">,k+@39y@&-bXw0@<1< n-@g=k&@3eo;<:40,u<&=5&w1&;<m;11rt%=;:@6w<#%",
"O$:iw=o1qgq k0>-&& MN@3y$Bs& o5o5-0V6*<X@v6k&y8X*dX.y1q>OnC0;5$<",
"=*84Xw1%-q@6XOi&1520=39=*Z>$,<154-k&3r=*@v0=*8<>z>X,gA54<0v3y&Og",
"X:*<X6w@<##=Oro@&c-5:r@wOB1&.21g1%&O9y&<8*,*8S033>&6X=<@%&<D*$@o",
"=5>@=6.=**;S>sD18o4O-&kv&O;@06&>F*+&8Z3o9-q1-ww<311wG+>*;&5yogyo",
";@20k0O->7*=qO&v8O>45Hj1;<wMh-;@q3S5316r>5O*Jw*-1Xk6K1-qO$5>%$L&",
">&.2S->>r8*g<$P6>1qq-$=B&w+w<>gyr-@@$k=5@qy4@5116&2B-5o9@<=0h$%6",
"X1@w>r;B3::-Pj6wX;q@w5$ -<6>so;8>:&wh0XI&31v@S 1;.c9ygqOq&mP2=,$",
"Uy*%>O;@><XkP=@*;<- v,>8o>%;*B<@5 P.<@;<-5%.,*:7y<<*;@5@XY6X->5>",
"y;>;&>;X10h=t9fqq*=2qoyy--><O3%&v6@*98**;>X<yriq;4--*=<0k=qoya:1",
">&=#>*X0@wg>rq=n@.Xry;Og&=<O*&6%v*>7O1,=6w:yB:*@@@3o<w+vOgo:@2 v",
"o$Xoy2Y=-<:3q3@kNk%7<:;55 q7=j@;<3;:o@0uj#8&>@o%=yf@0X*<43y* kTN",
"X65oq=#&&fyO*=.Y2a5:=3 =2+y3;-<@tyo;I2jk*<:5; -w%oy-55=:8o-=XjR5",
"HXx@3q<6@@I50X&w4Oy3&X2j6a<4:x2<-x502=%>44t#,EHE>I:yx.I55>,X&Xx;",
"Bo<qo1vX. xIYV=*-1iq&W2%o5:f;w= 6x16wv;>59*= .>8*y:>& &$-%,06;;@",
"socyO;X2#yq.YQ%*::*-XI-dt:y:&X2&q32.2@>yco%I=#dycq*-=v&>o 662x4o",
"r;>&&%  4ox%X=-g:;=Q 4y8a*-=I&@qy*1I,&*O>In&>yr--IIX =ar>5% <x:o",
"OX$YX&@O3>>--=@;@XQ=&47r=Xk @@*:4;&%X%&;EYX%;yr5 Nv&<:34;5-@%-;5",
"= YXy&>1;5%-I -; 6=X;q;&XjXq+>&<15%=#>-v0#O5*;-,Mvo->;;>-&X5;% ,",
"5I-9B=&X,=&@>44; ;9:*4&E#Io: &$v#==-:O1,4r*-;X X :q&XX,55=*O-&X*",
"yO3>>>#j0<a>9z5@-yZi;-#Oyq***@6k<<47r  @o!y<;=;xO;;>~00^;:zyX;5O",
"d75; O@0&Otdo3y=1z9a:g57dq;5g5jX>yZ7oq=%7:U85>t84><5-V&*Od8oq @r",
"*=5 =&@:B:4y>5%-r>ag;>i*X@%<@+*q>q*>-*5otx&;qto###<#vq;>:;3&5ar>",
" vk 1-st5:q%&5w;q-=;2*3,$v.51Ui;4>;#<&1*>%1n#oX6,X>5o8*-O-=&.>*<",
"/v$K&>Z1<&a5jY<Bk;-6 -&r&v3+Bi:1@*#k2w;&%X6#<=y= q53sqa<a-uk&&w-",
"&>9c.2g5q:-N25:=<<(Jk=8O$9rv0;-qo<Vw<3=;%2Y6<zo=88 $-%oo%Hn@o=;%",
"Sr:1=,=-5-+&Ud*21:&$<:U 3c<2& &<-&@O8cvXU;w>:4X:o%5==@<%&$>8*X5>",
" >F*=k0;-;%%o93%;yO>*D2Y;>>SkP@*5&X>Ur<q9-1>s,0O*3X0u=>%-+;yy#qq",
"&1g .,<=1>;&>y>@r*%;<0Y2=*=6w$1;3*$;OO>9>;3@0j &*&wk=@-yo+@:>q9;",
">&$6J,3<-;#5*@6Yq;<>>kX*&$v)0O1>y;$%1nk3=&*xk2*@X#jv>4gU5%&10X:=",
"@#vk-rg;tya<20k,$<4-21-&+.v_y;;8o;gXP0@v=q>%@@=&XX@o31:8>1+P6&X<",
";r;$*y*><>;=kY6X;551w<=-Oa$y7>>*O- ww <=5;-k @B3:2*8q>4;10Vn,&@;",
"934;1O>=BSuY@cq8*@1$@*:9y;*;>>&>XkY&Ooo4*#w=<yic>q5>> 5XuY#Oy:15",
"O1--->5=>kvKsr-%*= -y8yq&->>:o=;6,l8yq$- XOyyrc&5=*ocI10v;yr4=*+",
"*&$>r<Yv5 y1cO<wQ0vt;<c*&=@tOw6+%O*3q166k&r-*o><&=q>60%v;@O:@00h",
"c,58*Xw5-*yro3&vjw5OX*S3=Xrr=k55>o>8OX6j a*-yw;&<d8&n -;yOc>IkCw",
"jw1;>%4X=yo-=X- %q$>1&XNQ>*OOO%<:>;,X#,5*Xr;  0Y>;**:=&qog= `ww'",
".5*5qx% &=5a 2##q@3i=$0Q5;-::#$= -%JY.@>@y8& .0->-qO@w vX-06$&>1",
"dr>t:@=X554&wn2>;;fqIv-irOyr>I,E;O2nk+*-O8*<=Xo8*roa= =@4&66 a;g",
"z>Of-& .5rO=2X5qyo3& ;y9O3:>5,65ox&  >qryo-X&a8q*3>@&.&f4XvX>B:o",
"r&<n$= >:o;&<%&@;;=0=Oy91- =@X-:4%&<<@>**<w=*rs5>.X& 543x@1&@%;>",
">0hk4@*a:a-%5=@>&n6X&q:* 6k1#a*>-%@%=5<#%$$@*q:,wk1@@>Oa5@5=@-<2",
"XIvbyX@=&1-5&%a-Xv#1>><vX.OqX-X$-#5=<y-=E#5q*5,Xn*yS&==-&@X@:g 6",
">-3y*+&26@@<ry 5&;87@>X&1&oO&&v6&=@385@+-zrX1 X**:>%2 wIX<o8#-v ",
"8ra%5*5Vv*OydU5++Uyy4>&7dO;5>-NX-;ry8-&&7yo5#5rzo%@&;j2%4t9y1=XO",
"i> Bw<$@;>o9O<>@1or-8<*z>@<=<=&5>cro-*O>t3&qxot4<~ I @->ooo-3@*8",
"X,6u%+BD>yO5&Xw@tO%-X53=26.1,gr>o:%-<=&rx-1v-O%6,0-@1r-o:15-m-8>",
";=0@5cd*&-q-wju<@X;6wg&*@v*&*9y#<>Owkw&X&*w @&<&01->9r-@;3w =>&<",
">XU3v@c5>O-kV04@ #0N0B8r&row28>Og-kY0-B@5vhk@od$gz&6c:O140uwq@&5",
"v3r- 2@@B; Q@:o<O*&6@ry<*r5 6g<O;+0&]o=:Ovw=>r@g9-Sv@<->1.@OtX1B",
"X*;-X6,<@<#@3r*&&83<F9<0:[O&62&1#& B8c=;o;=BZ<0OOB+ $=5%@=;ryX@9",
"$5o&+6$5F*;X&9U>irB*A160&q;Xv &qOOX19U*iO4;5g061c1@vv&FO*+SrD*rO",
"11<k{,'-*U*,-BvGyq@:3}0ga<.YGKggr3<>o&vU>#-;j0>@5,u0-*@rO$@=6X8-",
"B=G2,;@B9r5@$mP5&%*y1$<g*$&w11g9r<<&wP$B=%4<wgg1v$ &*@yd;5@wh+>+",
"$<X6:8;3>3*&0Y6X%>*@v<=X@>n*rO3**><6hv@%>>S6B@$110BU:OOoy52k.&=5",
"OU;SgO;=<=vPw&%1O1-2,@*::3<1*>&=@&Pv <y1;-+w<c8o>&->-@5;&kv@-*5g",
"r>>-<qaSgm0$Oo:>*g++gcoo><;<-O@*vw&Fco>>1#=>ryU->->4c@gXP=oU:>3;",
"<&<@*OXk&vBBo*@ SP2o8>O>+X#**=w@=g*93<626 yq;o;&&&:y@.<6;Ooo;. 0",
"O&,orXjX5@U%cog60u@o+>S[X=Uc=0,;1;gccBwk0<y+--y<vqc+0v<+O[3og.Vk"
};
