/* XPM */
static char *b8c2e78e462e43eacf0aa7e4d2f4f918BMbpw8ted4d5rces[] = {
/* columns rows colors chars-per-pixel */
"64 64 152 2 ",
"   c #956C7C",
".  c #9D737F",
"X  c #AC7D7E",
"o  c #A27681",
"O  c #A67D84",
"+  c #AB7F80",
"@  c #A78086",
"#  c #A88287",
"$  c #AC8689",
"%  c #AF898A",
"&  c #B28C8C",
"*  c #B6918E",
"=  c #B8928F",
"-  c #B48F90",
";  c #B69292",
":  c #BA9594",
">  c #BE9995",
",  c #C08C8B",
"<  c #C2958E",
"1  c #C59A8E",
"2  c #D09487",
"3  c #D39588",
"4  c #C69793",
"5  c #C59C96",
"6  c #C89B93",
"7  c #C29E99",
"8  c #C5A197",
"9  c #C9A096",
"0  c #C6A29B",
"q  c #CAA59B",
"w  c #CCA99A",
"e  c #D2A395",
"r  c #D3A69B",
"t  c #D2AC9D",
"y  c #DAAB9A",
"u  c #D9B29F",
"i  c #E6BE97",
"p  c #E3BD9B",
"a  c #CBA9A0",
"s  c #D3AFA3",
"d  c #D8AFA1",
"f  c #D6B2A3",
"g  c #DBB2A1",
"h  c #DEBCA7",
"j  c #DBBBAA",
"k  c #E4BDA9",
"l  c #E4C09C",
"z  c #DEC0AD",
"x  c #E5C1A1",
"c  c #E8C4A2",
"v  c #EFCCA4",
"b  c #E1C0AD",
"n  c #EBC5AE",
"m  c #EFCDA9",
"M  c #F0CEA4",
"N  c #F1CFA9",
"B  c #F3D2AC",
"V  c #EDCDB4",
"C  c #F1CFB3",
"Z  c #EDD0B6",
"A  c #EED4B9",
"S  c #F4D3B4",
"D  c #FBD2B0",
"F  c #FDD4B1",
"G  c #F7D8B7",
"H  c #F7D8B7",
"J  c #FBDAB6",
"K  c #FDDAB5",
"L  c #FDDCB7",
"P  c #F0D4BA",
"I  c #F0D5BA",
"U  c #F4D4B8",
"Y  c #F4D5B9",
"T  c #F5D5B9",
"R  c #F6D4B8",
"E  c #F7D5B8",
"W  c #F5D6B9",
"Q  c #F6D7B8",
"!  c #F6D6B9",
"~  c #F7D6B9",
"^  c #F6D7B9",
"/  c #F5D5BA",
"(  c #F7D7BA",
")  c #F5D6B9",
"_  c #F6D8B8",
"`  c #F7D8B8",
"'  c #F6D8B9",
"]  c #F7D8B9",
"[  c #F6D8BA",
"{  c #F7D8BA",
"}  c #F7D9BA",
"|  c #F7D8BB",
" . c #F7D9BB",
".. c #F3D8BC",
"X. c #F4DBBD",
"o. c #F7D8B9",
"O. c #F8D8B9",
"+. c #F8D9B9",
"@. c #F9DAB8",
"#. c #F8D8BA",
"$. c #F9D8BA",
"%. c #F9D9BA",
"&. c #F8D9BB",
"*. c #F8DABA",
"=. c #F9DABA",
"-. c #F8DBBB",
";. c #F9DBBB",
":. c #FADBBA",
">. c #FDDCB8",
",. c #FDDDB8",
"<. c #FDDEB9",
"1. c #FFDEB8",
"2. c #FFDFB9",
"3. c #F8D9BC",
"4. c #F8DABC",
"5. c #F8DABD",
"6. c #F9DCBC",
"7. c #F9DCBD",
"8. c #FADCBD",
"9. c #FADDBE",
"0. c #FCDDBD",
"q. c #FADCBA",
"w. c #FFE0BA",
"e. c #FBE0BF",
"r. c #FFE1BF",
"t. c #FFE4BF",
"y. c #FDE0BC",
"u. c #FBE0C0",
"i. c #FCE0C0",
"p. c #FCE1C0",
"a. c #FCE1C1",
"s. c #FCE2C0",
"d. c #FDE2C0",
"f. c #FCE2C1",
"g. c #FCE3C1",
"h. c #FFE2C1",
"j. c #FFE3C1",
"k. c #FFE3C2",
"l. c #FFE4C0",
"z. c #FFE5C0",
"x. c #FFE4C1",
"c. c #FFE5C1",
"v. c #FFE4C2",
"b. c #FFE5C2",
"n. c #FFE5C3",
"m. c #FEE6C3",
"M. c #FFE6C3",
"N. c #FFE6C4",
"B. c #FFE7C4",
"V. c #FDE3C1",
"C. c #FFE8C4",
"Z. c #FFE9C5",
/* pixels */
"f.f.f.u.f.f.f.f.f.f.f.u.f.f.f.f.f.f.f.f.f.f.f.f.f.f.f.f.f.f.f.f.f.f.f.f.f.f.f.f.f.f.f.f.f.f.f.f.f.f.f.f.f.f.f.f.f.f.f.f.f.f.f.f.",
"f.f.m.B.m.m.m.m.m.m.m.m.m.m.m.m.B.B.m.m.m.m.m.m.m.m.m.m.m.m.m.B.m.m.m.m.B.B.m.m.m.B.m.B.B.B.m.m.m.m.m.B.B.m.m.B.m.m.B.m.B.m.f.f.",
"u.B.a & : ; ; ; ; ; ; ; ; ; ; ; ; ; ; ; ; ; ; ; ; ; ; ; ; ; ; ; ; ; ; ; ; ; ; ; ; ; ; ; ; ; ; ; ; ; ; ; ; ; ; ; ; ; ; : & a B.u.",
"e.C.7 1 l i i i i i i i i i i i i i i i i i i i i i i i i i i i i i i i i i i i i i i i i i i i i i i i i i i i i i i i 1 7 C.e.",
"f.f.f.7 2 3 3 3 3 3 3 3 3 3 3 3 3 3 3 3 3 3 3 3 3 3 3 3 3 3 3 3 3 3 3 3 3 3 3 3 3 3 3 3 3 3 3 3 3 3 3 3 3 3 3 3 3 3 3 2 0 f.f.f.",
"f.f.m.A   X + + + + @ @ + + + + + + + + + + + + + + + + + + + + + + @ + + + + + + + + + + + + + + + + + + + + + + + X   X.m.f.f.",
"f.f.m.A . + X X X X X X X X X X X X X X X X X X X X X X X X X X X X X X X X X X X X X X X X X X X X X X X X X X X X X o ..m.f.f.",
"f.f.m.A o 4 w t t t t t t t t t t t t t t t t t t t t t t t t t t t t t t t t t t t t t t t t t t t t t t t t t t t 4 o ..m.f.f.",
"f.f.m.Z $ F g & = * * * * * * * * * * * * * = * * * * * * * * * * * * * * * * * * * * * * * * * * * * * * * * = & g D $ P m.f.f.",
"f.f.m.V $ K : : b h h h h h h h h h b 8 # b h k h h h h h h h h h h h h h h h h h h b O 0 b h h h h h h h h h b * > J $ P m.f.f.",
"f.f.m.Z $ 2.7 t t.U U U U U U U U U m.j : m.#.U U U U U U U #.0.0.#.U U U U U U U #.m.; b m.U U U U U U U U U m.w 7 2.$ P m.f.f.",
"f.f.m.Z $ 2.7 w S 4 < < < < < < < 6 #.j ; r.r < < < < < < < 4 C S 6 < < < < < < < r f.- j U 6 < < < < < < < 4 S q 7 2.$ P m.f.f.",
"f.f.m.Z $ 2.7 t V 1 M m m m m m N e U j ; f.5 p N m m m m N 4 V V 1 v m m m m N p 5 f.- b S e B m m m m m v 1 V w 7 2.$ P m.f.f.",
"f.f.m.V $ 2.7 t V 1 B 4.| | | | 7.r R j ; f.5 p #.| | | | #.6 V V 1 B 4.| | | 7.x 5 m.- b S r 7.| #.#.| 4.S 1 V w 7 2.$ P m.f.f.",
"f.f.m.V $ 2.7 t V 1 B | U | | U #.r R j ; f.5 p G | U | U #.6 V V 1 B | U | U #.x 5 m.- b S r #.U | | U | B 1 V w 7 2.$ P m.f.f.",
"f.f.m.V $ w.7 t V 1 B | | | | | #.r R j ; f.5 p | | | | U #.6 V V 1 B | | | U #.x 5 m.- b S r 7.U | | | | B 1 V w 7 2.$ P m.f.f.",
"f.f.m.V $ w.7 t V 1 B | G | | | #.r R j ; m.5 p | #.| | U J 9 V V 1 B | | | | #.x 5 m.- b S r 7.S | | | | S 1 V w 7 2.$ P m.f.f.",
"f.f.m.V $ w.7 t V 1 B | G | | U #.r S j ; m.6 l #.#.| | U J 6 V V 1 B | | | | #.x 5 m.- b S r -.S | | | | B 1 V w 7 2.$ P m.f.f.",
"f.f.m.V $ w.7 t V 1 B | G | | S -.r S j ; m.5 l #.| | | U #.9 V V 1 B | | | | #.x 5 m.- b S r -.S | | | | S 1 V w 7 2.$ P m.f.f.",
"f.f.m.V $ w.7 t V 1 B | G | | | #.r S j ; m.5 l #.| | | U #.9 V V 1 B | | | | #.x 5 m.; b S r 7.U | | | | S 1 V w 7 2.$ P m.f.f.",
"f.f.m.V $ w.7 t V 1 B | G | | | #.r S j : m.5 l G | | | U #.9 V V 1 B | | | | -.x 5 m.- b S r 7.S | | | | S 1 V w 7 2.$ P m.f.f.",
"f.f.m.V $ w.7 t V 1 B | G | | | #.r S j : m.5 l G | | | U #.9 V V 1 B | | #.| #.x 5 m.- b S r -.U | | | | S 1 V w 7 2.$ P m.f.f.",
"f.f.m.V $ w.7 t V 1 B | G | | | #.r S j : m.5 l G | | | | #.6 V V 1 B | | | U #.x 5 m.- b S r -.| | | #.| S 1 V w 7 2.$ P m.f.f.",
"f.f.m.V $ w.7 t V 1 B | G | | | #.r S j ; m.5 l G | | | U #.9 V V 1 B | | | U #.x 5 m.- b S r -.| | #.#.| S 1 V w 7 2.$ P m.f.f.",
"f.f.m.V $ w.7 t V 1 B | | | | | #.r S j ; m.5 l G | | | U #.6 V V 1 B | | | U #.x 5 m.- b S r -.| | | | | S 1 V w 7 2.$ P m.f.f.",
"f.f.m.V $ w.7 t V 1 B | | | | | #.r S j ; m.5 l G | | | U J 6 V V 1 B | | | U #.x 5 m.- b S r -.S | | | | S 1 V w 7 2.$ P m.f.f.",
"f.f.m.V $ w.7 t V 1 B | | | | | #.r S j ; m.6 l G | | | U #.9 V V 1 B | | | U #.x 5 m.- b R r -.S | | | | B 1 V w 7 2.$ P m.f.f.",
"f.f.m.V $ w.7 t V 1 B | | | | | #.r R j ; m.6 l G | | | U J 9 V V 1 B | | | U #.x 5 m.- b S r -.S | | | | B 1 V w 7 2.$ P m.f.f.",
"f.u.m.V $ w.7 t V 1 B | #.| #.| #.r R j ; m.5 l G | | U U #.9 V V 1 B | | | U #.x 5 m.- b R r -.U | | | | S 1 V w 7 2.$ P m.f.f.",
"f.u.m.V $ w.7 t V 1 B | | | #.U #.r U j ; m.5 l G | | | U #.9 V V 1 B | U | U #.x 5 m.- b R r #.S | | | | B 1 V w 7 2.$ P m.f.f.",
"f.f.m.V $ w.7 t V 1 B | #.#.| U -.6 n j ; m.5 l G | | | | #.9 V V 1 B #.| | U #.x 5 m.- b C w 7.S | #.| | S 1 V w 7 2.$ P m.f.f.",
"f.u.m.V $ w.7 t V 1 B | | | U 7.g f r s : f.5 l G | | | U #.9 V V 1 B #.| | U #.x 5 m.; f d f h -.S | | | S 1 V w 7 2.$ P m.f.f.",
"f.f.m.V $ w.7 t V 1 B | | | U 0.r s 6 0 > f.5 l G | #.| U J 9 V V 1 B | | | | -.x 5 f.; s 6 f t 0.S | | | B 1 V w 7 2.$ P m.f.f.",
"f.f.m.V $ w.7 t V 1 B | | | U #.n , e t : f.5 p J #.| | U J 9 V V 1 B | | | | -.x 5 m.; j r , n #.| | | | B 1 V w 7 2.$ P m.f.f.",
"f.f.m.V $ w.7 t V 1 B | | | | U #.r R j ; m.5 l G | | | U #.9 V V 1 B | | | S #.x 5 m.- b C r 7.| | | | | S 1 V w 7 2.$ P m.f.f.",
"f.f.m.V $ w.7 t V 1 B | G | | | #.r R j ; m.5 l G | | | U #.9 V V 1 B | | | U #.l 5 m.- b S r #.| | | G | B 1 V w 7 2.$ P m.f.f.",
"f.f.m.V $ w.7 t V 1 B | G | | | #.r R j ; m.5 l G | | | U J 9 V V 1 B | | | U #.x 5 m.- b S r -.S | | G #.S 1 V w 7 2.$ P m.f.f.",
"f.f.m.V $ w.7 t V 1 B | G | | | #.r R j ; m.5 l G | | | U J 9 V V 1 B | | | U #.x 5 m.; b R r -.S | | G | S 1 V w 7 2.$ P m.f.f.",
"f.f.m.V $ w.7 t V 1 B | G | | | #.r R j ; m.5 l G | | | U J 9 V V 1 B | | | U #.x 5 m.- b S r -.S | | | | S 1 V w 7 2.$ P m.f.f.",
"f.f.m.V $ w.7 t V 1 B | | | | U #.r R j ; m.5 l G | | | U J 9 V V 1 B | | | U #.x 5 m.- b S r -.S | | | | S 1 V w 7 2.$ P m.f.f.",
"f.f.m.V $ w.7 t V 1 B #.#.| | | #.r R j ; m.5 l | | | | U #.9 V V 1 B | | | U #.x 5 m.- b S r -.U | | | | B 1 V w 7 2.$ P m.f.f.",
"f.f.m.V $ w.7 t V 1 B #.#.| | | #.r R j ; m.5 l | | | | U #.9 V V 1 B | | | U #.x 5 m.- b S r -.| | | G | B 1 V w 7 2.$ P m.f.f.",
"f.f.m.Z $ w.7 t V 1 B #.| | | U #.r R j ; m.5 l G | | | U J 9 V V 1 B | | | U #.x 5 m.- b S r -.| | | | | B 1 V w 7 2.$ P m.f.f.",
"f.f.m.Z $ w.7 t V 1 B | G | | U #.r R j : m.5 l G | | | U J 9 V V 1 B | | | | -.x 5 m.- b S r -.| | | | | B 1 V w 7 2.$ P m.f.f.",
"f.f.m.Z $ w.7 t V 1 B | G | | | #.r R j ; m.5 l G | | | U #.9 V V 1 B | | | U #.x 5 m.- b S r -.S | | G | S 1 V w 7 2.$ P m.f.f.",
"f.f.m.V $ w.7 t V 1 B | G | | U #.r R j ; m.5 l G | | | U #.9 V V 1 B | | | U #.x 5 m.- b S r -.S | | G | S 1 V w 7 2.$ P m.f.f.",
"f.f.m.V $ w.7 t V 1 B | | | | U #.r R j ; m.5 l G | | | U #.9 V V 1 B | | | U #.x 5 m.- b S r -.S | | | | S 1 V w 7 2.$ P m.f.f.",
"f.f.m.Z $ w.7 t V 1 B | | | | U #.r R j ; m.5 l G | | | U #.9 V V 1 B | | | U #.x 5 m.- b S r -.S | | | | S 1 V w 7 2.$ P m.f.f.",
"f.f.m.V $ w.7 t V 1 B | | | | U #.r R j ; f.5 l G | | | U #.9 V V 1 B | U | U #.x 5 m.- b S r -.U | | | | S 1 C w 7 2.$ P m.f.f.",
"f.f.m.V $ w.7 t V 1 B | | | | U #.r R j ; f.5 p G | | | U #.6 V V 1 B | U | U #.x 5 f.- b R r #.U | | | | S 1 V w 7 2.$ P m.f.f.",
"f.f.m.V $ w.7 t V 1 B U S U U U #.r S j ; f.5 p S U U U U J 6 n V 1 N U S U S #.x 5 f.- b S r #.S U U S U B 1 V w 7 2.$ P m.f.f.",
"f.f.m.V $ w.7 t V 1 B 7.7.7.7.7.r.r S j ; f.5 p -.7.7.7.7.2.9 n V 1 B 7.-.7.-.r.c 5 f.- j S r r.-.7.7.-.7.S 1 V w 7 2.$ P m.f.f.",
"f.f.m.Z $ w.7 w C < y g g g g g g 6 S j ; f.6 9 g g g g g u < V C < y g g g g g e 6 f.- j R 6 g g g g g g y < S q 7 2.$ P m.f.f.",
"f.f.m.Z $ 2.7 w 0.k k k k k k k k k 0.j : m.n k k k k k k k b U | n k k k k k k k n f.; j 0.k k k k k k k k k 0.q 7 2.$ P m.f.f.",
"f.f.m.V $ 1.: 8 S S S S S S S S S S S s & S S S S S S S S S S V V S S S S S S S S V S % f S S S S S S S S S Z S 7 7 K $ A m.f.f.",
"f.f.m.A % 1.t @ & % % % % % % % % % & $ # & & & % & & % % % % & % % % % % % % % % % & # $ & % % % % % % % & % & O t 1.% ..m.f.f.",
"f.f.m.j O g g u u u u u u u u u u u u u u u u u u u u u u u u u u u u u u u u u u u u u u u u u u u u u u u u u u g g O z m.f.f.",
"f.f.m.% 0 s s s s s s s s s s s s s s s s s s s s s s s s s s s s s s s s s s s s s s s s s s s s s s s s s s s s s s 0 % m.f.f.",
"f.f.f.- n S S S S S S S S S S S S S S S S S S S S S S S S S S S S S S S S S S S S S S S S S S S S S S S S S S S S S S n - f.f.f.",
"f.f.m.& e y y y y y y y y y y y y y y y y y y y y y y y y y y y y y y y y y y y y y y y y y y y y y y y y y y y y y y e & m.f.f.",
"f.f.m.$ < 6 6 6 6 6 6 6 6 6 6 6 6 6 6 6 6 6 6 6 6 6 6 6 6 6 6 6 6 6 6 6 6 6 6 6 6 6 6 6 6 6 6 6 6 6 6 6 6 6 6 6 6 6 6 < $ m.f.f.",
"f.f.m.q ; : : : : : : : : : : : : : : : : : : : : : : : : : : : : : : : : : : : : : : : : : : : : : : : : : : : : : : ; q m.f.f.",
"f.f.f.B.C.C.C.C.C.C.C.C.C.C.C.C.C.C.C.C.C.C.C.C.C.C.C.C.C.C.C.C.C.C.C.C.C.C.C.C.C.C.C.C.C.C.C.C.C.C.C.C.C.C.C.C.C.C.C.C.B.f.f.f.",
"f.f.f.u.e.u.e.e.e.u.u.e.e.e.u.e.e.e.e.e.e.e.e.u.u.e.e.u.e.e.u.u.e.e.u.u.u.u.u.u.u.u.u.u.e.u.u.u.u.e.e.u.u.u.u.u.u.u.u.u.u.f.f.f."
};
